<?xml version="1.0" standalone="no"?>
<!DOCTYPE svg PUBLIC "-//W3C//DTD SVG 20010904//EN"
 "http://www.w3.org/TR/2001/REC-SVG-20010904/DTD/svg10.dtd">
<svg version="1.0" xmlns="http://www.w3.org/2000/svg"
 width="512.000000pt" height="512.000000pt" viewBox="0 0 512.000000 512.000000"
 preserveAspectRatio="xMidYMid meet">
<metadata>
Created by potrace 1.11, written by Peter Selinger 2001-2013
</metadata>
<g transform="translate(0.000000,512.000000) scale(0.100000,-0.100000)"
fill="#000000" stroke="none">
<path d="M2462 5109 c-19 -4 -39 -12 -45 -19 -9 -8 -7 -10 8 -4 15 5 12 -1
-10 -20 -30 -27 -46 -29 -113 -10 -9 2 1 -4 23 -14 33 -16 36 -20 20 -24 -13
-3 -4 -8 29 -15 62 -14 94 -3 124 42 12 19 30 35 40 36 9 0 27 2 40 5 13 2 21
0 17 -5 -3 -5 3 -12 14 -16 10 -3 26 -14 36 -25 17 -19 17 -19 -14 -10 l-32 9
31 -32 c66 -66 81 -115 20 -63 -35 29 -67 32 -120 10 l-35 -14 45 7 c90 13
111 5 112 -45 1 -18 10 -40 21 -49 10 -10 26 -31 34 -48 l14 -30 -21 25 c-12
14 -19 19 -15 13 8 -16 -9 -17 -36 -3 -32 18 -21 3 15 -19 19 -12 37 -29 40
-38 5 -12 3 -13 -6 -6 -7 6 -37 18 -65 27 -49 16 -78 36 -54 36 17 0 13 19
-10 51 -20 29 -20 29 0 29 11 0 23 5 26 10 4 6 3 10 -2 9 -4 -1 -15 0 -23 3
-52 19 -130 38 -151 37 -15 0 -5 -5 24 -13 55 -15 97 -50 97 -80 -1 -19 -2
-18 -15 5 -17 32 -62 62 -77 53 -7 -4 -8 -3 -4 4 4 7 1 12 -7 12 -7 0 -14 -6
-14 -14 0 -8 3 -14 6 -14 15 3 61 -15 72 -28 9 -11 6 -16 -14 -23 -14 -6 -51
-27 -82 -47 -30 -20 -58 -34 -61 -31 -10 10 16 46 30 41 8 -3 17 0 22 7 5 9 2
10 -10 6 -30 -12 -8 10 28 27 20 9 48 14 63 11 25 -4 25 -4 -3 6 -27 10 -38 8
-76 -15 -60 -35 -102 -81 -94 -102 4 -9 -1 -28 -10 -42 -26 -40 2 -122 43
-122 7 0 13 -4 13 -10 0 -16 -43 -12 -69 6 -13 9 -32 35 -43 58 l-19 41 6 -35
c4 -27 3 -30 -4 -13 -5 11 -11 35 -13 52 -2 17 -8 31 -13 31 -22 0 -1 -98 30
-144 l25 -37 -22 6 c-26 8 -57 40 -59 61 -1 8 -3 19 -4 24 -1 6 -3 18 -4 28
-2 9 -9 0 -17 -21 -14 -41 -7 -73 23 -90 17 -11 7 -27 -17 -27 -22 0 -28 15
-36 85 -4 34 -3 55 5 59 6 4 11 12 11 18 0 7 -5 7 -14 -1 -10 -8 -21 -9 -42
-1 l-29 11 21 -23 c31 -34 36 -55 23 -99 -11 -34 -10 -42 6 -59 10 -11 24 -20
32 -20 8 0 11 -5 8 -11 -11 -17 -49 -27 -66 -18 -17 9 -54 99 -41 99 4 0 0 5
-8 10 -8 5 -10 10 -4 10 7 0 9 10 6 25 -2 14 -8 23 -12 20 -4 -3 -7 2 -6 11 0
9 -10 23 -23 32 -23 16 -23 16 -17 -15 5 -22 1 -43 -13 -71 l-20 -40 21 -27
c16 -20 26 -25 44 -21 14 4 24 2 24 -4 0 -5 -7 -10 -16 -10 -8 0 -13 -4 -10
-9 3 -4 -3 -8 -14 -7 -11 0 -21 6 -21 11 0 6 -7 14 -15 18 -8 4 -23 26 -35 49
-19 38 -20 42 -4 57 15 15 16 14 10 -4 -5 -14 -2 -13 9 5 8 14 15 33 16 43 0
25 -27 21 -34 -6 -3 -12 -14 -32 -26 -45 -11 -12 -23 -35 -27 -52 -3 -17 -14
-35 -24 -40 -26 -15 -31 -12 -19 9 5 11 10 37 10 57 0 21 8 46 18 57 18 22 19
22 -32 1 -11 -4 -14 1 -13 15 1 13 6 20 14 17 7 -3 13 -1 13 3 0 5 -5 11 -12
13 -9 3 -8 12 1 38 13 39 9 36 -44 -39 -29 -41 -39 -65 -40 -96 -1 -24 -10
-54 -22 -71 -40 -57 -58 -149 -34 -178 6 -7 7 -16 2 -22 -5 -5 -13 -40 -16
-79 -4 -38 -13 -86 -20 -105 -15 -42 -6 -66 38 -100 15 -12 27 -26 27 -32 0
-6 7 -19 16 -29 14 -15 14 -23 4 -55 -18 -53 -8 -129 20 -160 22 -22 23 -27
11 -60 -17 -47 -9 -53 14 -10 20 37 23 29 -31 104 -13 17 -14 26 -6 34 9 9 12
8 12 -3 0 -13 45 -69 56 -69 3 0 -4 14 -16 31 -30 41 -21 45 19 7 32 -29 33
-34 26 -77 -5 -25 -9 -61 -9 -78 -1 -18 -5 -31 -11 -29 -5 2 -9 21 -8 44 2 41
2 41 -18 21 -16 -16 -18 -26 -11 -47 8 -25 12 -27 70 -27 90 -1 104 -20 87
-120 -9 -53 -21 -64 -36 -32 -8 19 -9 34 -1 57 11 29 7 59 -7 61 -3 1 -24 2
-47 4 -50 3 -60 8 -85 48 l-18 31 5 -39 c11 -82 13 -85 68 -112 51 -25 76 -54
76 -88 0 -8 -4 -16 -9 -19 -4 -3 -6 5 -4 19 4 20 -2 27 -37 45 -23 12 -39 17
-35 11 14 -24 -15 -9 -34 17 -18 25 -20 25 -14 4 3 -13 28 -42 54 -64 37 -31
48 -46 43 -61 -5 -16 -3 -17 13 -8 11 5 25 17 33 25 17 21 30 20 30 -3 0 -23
-18 -39 -50 -43 -14 -2 -30 -7 -37 -11 -6 -4 -14 -3 -17 2 -4 5 -2 12 4 16 6
4 5 16 -5 35 -20 39 -38 50 -25 15 6 -15 10 -39 10 -55 0 -16 6 -31 13 -33 9
-4 9 -8 -2 -15 -18 -13 -9 -63 19 -102 11 -15 20 -34 20 -42 0 -7 9 -24 20
-38 l19 -25 -51 -48 c-28 -27 -60 -53 -70 -58 -24 -13 -41 -46 -27 -54 5 -4
36 22 69 56 32 35 62 61 66 57 9 -9 -12 -40 -65 -98 -38 -41 -68 -95 -116
-205 -10 -22 -25 -53 -33 -70 -14 -28 -14 -29 1 -16 10 7 17 19 17 27 0 7 4
16 10 19 11 7 6 -7 -29 -88 -28 -65 -33 -113 -14 -129 13 -10 19 -8 39 15 22
26 29 27 25 3 -4 -19 -1 -273 3 -296 3 -14 7 -52 10 -85 4 -33 8 -75 11 -93 2
-18 0 -30 -5 -27 -14 9 0 -36 37 -112 35 -75 52 -91 54 -50 3 40 1 51 -15 120
-24 102 -19 102 22 1 20 -50 43 -99 51 -108 8 -9 11 -19 8 -22 -14 -14 118
-238 134 -229 5 4 6 -2 2 -11 -5 -13 -3 -15 7 -9 9 5 11 4 6 -3 -8 -14 73
-144 85 -136 5 3 7 -1 4 -8 -8 -23 64 -109 109 -128 43 -19 86 -17 86 4 0 7
-32 50 -71 96 -236 279 -422 614 -465 836 -8 46 -12 116 -10 186 2 62 4 131 5
152 1 49 7 44 16 -12 13 -92 47 -199 77 -250 18 -29 80 -117 138 -196 90 -121
106 -148 104 -176 -1 -21 5 -40 18 -54 18 -20 19 -20 12 -1 -7 19 -7 19 13 2
11 -9 23 -14 26 -10 4 3 7 -1 7 -9 0 -9 15 -31 33 -51 108 -117 147 -157 147
-149 0 4 -30 42 -68 83 -37 41 -81 94 -97 119 -16 25 -64 91 -107 146 -42 56
-74 104 -71 108 3 3 1 6 -6 6 -7 0 -9 5 -5 13 4 6 4 9 -1 5 -4 -4 -27 22 -51
57 -79 118 -114 192 -130 272 -17 88 -19 222 -4 237 5 5 10 18 10 28 0 10 5
18 10 18 6 0 10 8 10 18 0 14 2 15 10 2 9 -13 10 -13 10 0 1 13 2 13 10 -1 5
-8 12 -51 15 -95 8 -102 29 -211 50 -260 13 -31 18 -36 26 -24 9 13 10 12 6
-2 -6 -18 50 -104 60 -94 8 8 43 -24 43 -38 0 -6 -9 0 -20 14 -11 14 -20 20
-20 14 0 -13 45 -56 52 -49 5 6 68 -70 68 -82 0 -4 -7 1 -15 11 -8 11 -15 15
-15 9 0 -13 25 -35 32 -27 3 3 34 -30 69 -73 65 -82 106 -127 79 -88 -40 57
29 -24 134 -159 118 -151 195 -240 201 -234 2 2 -8 17 -23 33 -15 17 -51 62
-81 100 l-53 70 75 -77 c65 -67 126 -151 96 -133 -5 4 -9 3 -9 0 0 -9 52 -55
62 -55 5 0 6 -5 2 -12 -5 -7 -2 -9 9 -5 15 6 42 -15 32 -25 -3 -3 10 -18 27
-35 18 -17 46 -46 62 -64 15 -19 58 -65 94 -104 35 -38 86 -92 111 -120 26
-27 58 -65 70 -83 31 -44 98 -92 128 -92 32 0 29 17 -6 25 -15 3 -40 19 -55
34 l-27 28 31 6 c16 4 53 16 81 28 42 18 59 34 99 93 26 39 70 91 96 116 73
67 76 72 58 99 -13 19 -18 20 -32 9 -12 -10 -14 -10 -8 -1 4 8 1 13 -9 13 -9
0 -47 -29 -83 -64 -73 -69 -138 -114 -248 -169 l-71 -36 -23 24 c-13 14 -21
27 -19 29 2 3 39 27 82 55 43 28 75 55 72 60 -3 5 0 13 6 17 8 5 9 3 4 -7 -5
-8 1 -5 13 5 24 21 29 31 10 21 -18 -10 78 82 141 135 30 24 92 87 139 140 47
52 88 95 91 95 3 0 12 4 19 9 11 7 12 4 3 -12 -14 -27 -14 -35 1 -26 8 5 9 2
5 -9 -16 -40 -19 -52 -9 -39 5 8 13 13 18 12 5 -1 10 4 12 12 2 9 1 9 -7 -2
-7 -10 -9 -4 -7 24 2 20 9 43 15 49 9 9 11 8 5 -7 -5 -14 -4 -17 5 -11 10 6
11 3 2 -13 -14 -26 -14 -35 -1 -27 6 4 3 -9 -6 -29 -10 -19 -22 -32 -27 -29
-6 3 -7 1 -3 -5 4 -6 0 -25 -9 -41 -19 -39 -19 -55 1 -18 14 26 34 29 34 4 0
-7 -4 -6 -11 3 -9 12 -10 12 -7 1 3 -8 10 -17 18 -19 9 -3 11 2 7 17 -3 12 1
28 10 36 8 9 36 66 63 128 62 147 138 273 154 256 6 -7 -69 -239 -99 -304 -15
-33 -52 -118 -82 -190 -113 -272 -266 -510 -347 -543 l-31 -12 35 30 c19 16
29 30 23 30 -7 0 -14 -4 -18 -10 -3 -5 -34 -25 -68 -44 -34 -20 -55 -36 -47
-37 8 0 2 -5 -15 -10 -52 -15 -189 16 -267 61 -36 21 -213 91 -242 96 -17 3
-51 10 -75 15 -37 8 -47 7 -60 -7 -9 -9 -11 -14 -4 -10 7 4 26 0 43 -9 20 -10
42 -14 61 -10 18 4 29 3 29 -4 0 -6 7 -11 15 -11 8 0 15 -4 15 -10 0 -5 -6
-10 -12 -10 -14 0 -102 23 -133 35 -14 6 -17 5 -10 -3 6 -6 48 -20 95 -32 46
-12 100 -28 118 -36 43 -17 43 -17 35 1 -3 9 -23 25 -44 36 -41 20 -52 33 -21
23 50 -16 72 -27 72 -36 0 -6 6 -8 14 -5 10 4 13 0 11 -14 -3 -15 4 -24 30
-35 19 -7 42 -11 52 -8 14 5 15 4 4 -4 -11 -8 -9 -11 8 -17 11 -3 26 -3 32 1
7 4 9 3 5 -4 -3 -6 6 -13 24 -17 16 -4 34 -14 39 -22 6 -12 18 -15 45 -10 20
3 36 2 36 -4 0 -5 8 -9 17 -9 9 0 13 -3 10 -7 -11 -10 -217 -11 -210 0 3 5 -4
4 -14 -2 -24 -13 -100 13 -245 84 -85 41 -103 54 -150 112 -70 87 -121 128
-143 116 -14 -8 -14 -11 -2 -22 8 -6 24 -14 36 -16 28 -5 41 -14 41 -27 0 -7
-6 -6 -15 2 -8 7 -15 10 -15 7 0 -4 15 -17 33 -29 19 -13 49 -41 68 -62 l34
-39 -30 6 c-24 6 -27 5 -12 -4 10 -6 24 -9 30 -6 7 2 18 -2 26 -10 12 -13 11
-14 -10 -8 -54 15 -78 28 -72 38 3 5 1 7 -5 3 -11 -6 -122 38 -122 49 0 3 10
0 23 -6 17 -9 20 -9 10 1 -6 7 -22 13 -35 14 -13 1 -22 7 -21 14 2 7 -4 9 -14
5 -12 -5 -14 -3 -8 8 4 8 5 11 0 7 -17 -16 -229 155 -328 264 -132 145 -267
311 -321 393 -53 80 -121 226 -149 321 -8 28 -25 72 -36 97 -12 26 -20 51 -17
55 3 5 6 41 7 81 1 40 8 100 16 133 19 81 10 85 -12 6 -23 -84 -31 -212 -15
-279 22 -98 43 -158 53 -152 6 3 7 1 3 -6 -4 -6 -4 -21 -1 -32 6 -17 9 -19 16
-8 7 9 8 4 3 -16 -3 -19 -2 -25 3 -17 7 8 18 -8 38 -54 16 -36 42 -86 57 -111
16 -24 23 -41 17 -37 -8 5 -10 2 -7 -8 4 -8 0 -15 -7 -15 -9 0 -11 6 -6 16 10
20 3 43 -11 35 -7 -4 -8 -2 -4 4 4 7 3 12 -3 12 -13 0 -54 77 -47 88 3 5 0 14
-6 22 -8 12 -9 12 -4 -3 3 -11 2 -16 -4 -12 -6 3 -7 18 -4 33 4 17 2 22 -3 14
-11 -14 -42 52 -63 131 -16 58 -32 72 -25 20 13 -85 68 -228 84 -218 5 3 7 -3
5 -12 -3 -11 27 -65 75 -138 175 -263 299 -425 370 -484 78 -65 523 -379 545
-384 26 -7 83 -24 256 -77 112 -34 149 -41 215 -40 44 0 91 2 105 4 45 7 105
13 83 9 -13 -2 -23 -8 -23 -13 0 -9 96 11 175 37 54 17 99 43 91 51 -3 3 -12
-1 -21 -8 -9 -7 -18 -10 -21 -7 -3 3 5 11 17 18 29 15 43 26 91 72 42 40 48
43 48 25 0 -7 -16 -23 -36 -36 -20 -13 -33 -26 -31 -29 3 -3 34 17 69 43 44
35 57 41 43 22 -11 -14 -55 -52 -98 -84 -83 -62 -100 -87 -20 -32 68 48 74 51
68 36 -3 -7 -35 -32 -72 -55 -52 -34 -68 -40 -77 -30 -9 11 -17 10 -44 -4 -20
-10 -28 -19 -20 -22 8 -4 7 -6 -4 -6 -10 -1 -18 3 -18 9 0 10 -17 6 -70 -18
-27 -12 -74 -16 -198 -17 -171 -1 -198 -8 -171 -41 13 -16 11 -17 -16 -10 -20
4 -25 4 -16 -3 11 -7 8 -10 -15 -14 -16 -2 2 -5 39 -6 38 0 66 -5 63 -10 -7
-10 17 -21 45 -21 11 0 18 -4 15 -8 -3 -5 20 -5 51 0 77 12 91 4 20 -11 -49
-11 -68 -10 -133 5 -54 13 -70 20 -57 25 12 5 6 8 -21 8 -43 1 -104 19 -123
37 -7 6 -34 15 -60 19 -26 4 -43 10 -36 12 7 2 49 -3 94 -12 44 -9 83 -14 86
-12 2 3 -22 10 -54 17 -191 38 -257 66 -398 172 -55 41 -107 81 -115 89 -48
45 -189 166 -280 241 -166 136 -343 328 -462 503 -67 98 -154 243 -184 304
-25 53 -41 116 -27 108 13 -8 9 191 -4 204 -7 7 -15 5 -27 -6 -12 -12 -16 -35
-16 -91 0 -112 24 -201 78 -291 162 -268 443 -624 534 -676 21 -11 38 -27 38
-34 0 -7 7 -13 15 -13 30 0 299 -236 288 -253 -3 -5 -1 -7 4 -4 6 4 33 -15 60
-41 50 -48 200 -155 263 -187 19 -10 105 -42 190 -72 85 -30 196 -71 245 -91
90 -36 91 -36 246 -38 86 -1 164 -6 174 -11 13 -8 0 -11 -55 -12 -95 -2 -117
-8 -124 -34 -4 -14 -9 -18 -13 -11 -10 15 -64 21 -82 10 -10 -6 -12 -5 -7 2 5
8 -4 12 -26 13 -46 2 -89 7 -105 13 -7 3 -13 2 -13 -3 0 -12 38 -23 80 -23
l35 1 -30 -8 c-25 -6 -18 -8 40 -14 39 -4 104 -8 145 -9 l75 -1 -60 -6 c-33
-3 -88 -6 -122 -5 -34 0 -60 -2 -58 -6 2 -4 49 -15 104 -25 55 -10 105 -21
111 -25 17 -10 1 -38 -28 -49 -27 -11 -27 -11 -2 -7 14 2 36 7 50 11 17 4 15
2 -8 -9 -22 -10 -48 -13 -82 -9 -44 5 -50 4 -50 -13 0 -16 -2 -16 -10 -4 -10
16 -70 22 -70 7 0 -5 14 -7 30 -5 17 3 30 1 30 -4 0 -4 -20 -8 -45 -8 -25 0
-45 -5 -45 -11 0 -5 5 -7 12 -3 7 4 8 3 4 -4 -9 -14 -79 -15 -161 -3 -33 5
-89 12 -125 16 -124 11 -194 26 -243 51 -50 25 -97 32 -97 14 0 -5 13 -7 29
-4 18 4 32 1 36 -7 6 -9 3 -11 -8 -6 -9 3 -19 2 -22 -2 -12 -20 -73 -21 -126
-2 -109 37 -164 69 -223 130 -33 34 -56 61 -52 61 11 0 -60 58 -194 160 -131
99 -229 196 -277 272 -18 29 -33 56 -33 60 0 4 -34 78 -76 165 -126 263 -235
515 -229 531 3 8 -1 36 -10 61 -12 39 -29 111 -52 221 -2 14 -11 68 -19 120
l-13 95 5 -85 c6 -98 47 -315 69 -367 9 -20 14 -38 11 -40 -12 -12 -129 309
-142 389 -7 43 -29 56 -44 27 -25 -47 -16 -82 62 -234 42 -83 129 -269 193
-415 64 -146 127 -287 140 -315 12 -27 41 -95 65 -150 23 -55 48 -115 56 -134
8 -18 18 -31 21 -27 3 3 0 14 -7 23 -7 10 38 -35 99 -100 62 -64 116 -115 120
-112 8 4 62 -47 64 -62 1 -4 5 -7 9 -6 5 2 7 -3 5 -10 -1 -6 4 -11 11 -9 8 1
11 -1 8 -6 -3 -5 17 -31 44 -57 28 -27 50 -52 50 -56 0 -4 -10 -10 -22 -12
-13 -2 -3 -5 22 -7 38 -2 41 -3 20 -10 -27 -8 -210 -6 -249 4 -79 19 -202 80
-198 99 1 6 -25 19 -58 29 -33 10 -68 28 -77 39 -21 25 -24 44 -5 33 6 -4 4 1
-5 12 -9 10 -17 22 -17 27 0 4 -8 22 -17 40 -24 45 -145 373 -178 482 -15 50
-44 128 -64 175 -39 93 -64 171 -58 177 2 3 12 -21 21 -52 24 -84 27 -62 4 28
-11 43 -17 83 -13 88 11 18 24 -13 18 -41 -4 -16 -2 -21 3 -12 6 8 24 -32 53
-123 23 -74 44 -135 46 -135 2 0 1 15 -2 33 -4 30 -4 30 6 7 6 -14 9 -33 6
-42 -2 -10 0 -16 4 -13 5 3 13 -7 19 -22 17 -43 7 -3 -43 170 -25 87 -52 170
-60 185 -23 42 -19 11 9 -62 14 -37 25 -74 24 -84 0 -9 -5 -3 -10 13 -41 124
-52 145 -73 146 -17 1 -17 2 -3 6 16 4 25 23 10 23 -28 -1 -53 -46 -53 -94 0
-19 25 -131 55 -248 68 -265 72 -284 35 -178 -16 47 -27 72 -23 55 4 -16 8
-52 9 -80 1 -27 14 -99 29 -158 14 -60 24 -114 21 -120 -2 -7 -5 -2 -5 10 -1
12 -5 24 -10 27 -4 3 -3 -15 2 -40 8 -34 13 -41 17 -28 6 16 8 14 18 -11 9
-25 11 -26 11 -8 1 12 -3 33 -9 47 -5 14 -7 26 -5 26 6 0 19 -33 29 -72 5 -23
3 -28 -11 -28 -27 0 -83 38 -83 56 0 21 -57 74 -81 74 -24 0 -87 32 -93 47
-28 69 -29 1104 -1 1198 3 11 -4 0 -15 -24 -11 -25 -20 -52 -19 -60 1 -9 1
-20 0 -26 -1 -5 -2 -59 -2 -118 0 -84 -3 -107 -13 -104 -7 3 -13 -1 -13 -9 0
-7 4 -11 9 -8 9 6 11 -7 8 -56 -2 -19 -3 -45 -3 -57 -1 -13 -4 -23 -8 -23 -5
0 -6 -9 -4 -20 2 -11 1 -20 -3 -20 -11 0 -15 -182 -4 -189 5 -3 13 -76 17
-161 4 -85 8 -157 10 -160 1 -3 -1 -14 -5 -24 -6 -17 -13 -11 -50 40 -48 66
-71 90 -115 120 -43 30 -78 39 -41 11 63 -47 117 -101 143 -143 16 -24 31 -44
34 -44 21 0 42 -32 46 -71 7 -61 26 -87 86 -114 29 -12 69 -42 90 -64 38 -42
66 -57 119 -70 35 -8 149 -97 176 -137 12 -18 44 -42 77 -58 31 -15 83 -43
114 -63 31 -20 90 -47 131 -59 67 -19 75 -24 76 -47 1 -28 -32 -144 -65 -227
-11 -30 -15 -47 -8 -38 8 10 18 14 22 10 5 -4 5 -1 1 6 -4 6 -3 12 2 12 4 0
16 15 26 33 15 29 15 22 -1 -23 -3 -8 1 -6 10 6 8 11 24 47 35 80 12 32 21 54
21 47 1 -7 -6 -33 -15 -58 -8 -26 -13 -52 -11 -58 2 -7 16 24 30 68 14 44 26
73 27 64 0 -9 -7 -36 -15 -59 -17 -48 -20 -90 -4 -50 6 14 21 64 34 111 l23
86 -24 0 c-19 0 -24 -5 -25 -26 -1 -25 -2 -25 -9 4 l-8 30 -1 -27 c0 -15 -5
-29 -9 -32 -4 -2 -6 11 -4 30 l4 34 79 0 c78 0 79 0 85 -27 10 -48 12 -49 13
-6 1 41 2 42 34 39 66 -6 87 -16 88 -45 0 -23 1 -24 9 -6 8 21 8 21 23 -25 4
-11 6 -10 6 3 1 10 7 17 14 14 6 -2 11 -13 9 -23 -2 -18 -2 -18 11 -2 15 19
29 14 21 -7 -3 -7 -1 -16 5 -20 6 -3 11 1 11 9 0 20 33 21 49 2 6 -7 9 -28 6
-47 l-5 -34 12 32 c18 43 19 44 60 32 31 -8 37 -15 41 -42 l4 -32 1 33 c1 22
6 32 15 29 6 -2 11 -13 9 -23 -2 -15 -1 -16 7 -4 5 8 7 18 4 23 -3 5 0 7 8 5
8 -3 14 -12 14 -21 0 -30 13 -28 20 2 4 17 11 31 16 31 13 0 37 -53 31 -70 -2
-9 2 -7 12 5 15 20 15 20 16 -2 0 -13 5 -23 10 -23 6 0 10 10 11 23 0 14 2 17
6 7 3 -8 12 -19 19 -23 8 -4 14 -14 14 -22 0 -8 5 -17 12 -21 8 -5 9 0 6 14
-4 12 -2 22 3 22 5 0 9 -8 10 -17 1 -12 4 -10 9 7 l8 25 1 -27 c1 -15 6 -30
13 -34 7 -4 8 -3 4 4 -4 7 -2 12 3 12 6 0 11 -8 11 -17 1 -16 2 -16 15 1 14
19 15 18 16 -10 0 -25 2 -26 8 -9 l8 20 5 -20 c4 -15 6 -12 8 10 l2 30 14 -35
13 -35 -3 33 c-3 18 0 30 5 26 5 -3 10 -17 10 -32 l1 -27 8 30 8 30 1 -30 c1
-16 6 -37 12 -45 8 -12 10 -9 6 12 -2 15 0 25 4 22 5 -3 10 -13 10 -22 1 -9 5
-4 9 13 l8 30 2 -35 3 -35 7 40 c6 34 8 36 10 13 4 -44 5 -46 13 -55 5 -4 8
-3 7 2 -5 22 1 29 11 15 8 -11 9 -6 5 20 -4 25 -3 31 4 20 5 -8 10 -24 11 -35
1 -14 4 -10 9 10 l8 30 1 -27 c0 -16 5 -28 9 -28 5 0 8 12 7 27 -1 16 0 19 2
8 8 -33 26 -44 21 -13 -3 15 -1 25 3 22 5 -3 9 -11 9 -18 0 -8 9 -16 20 -19
14 -4 20 0 20 11 0 15 2 15 10 2 8 -13 10 -12 10 4 0 20 0 20 16 0 15 -19 16
-19 10 1 -6 20 -6 20 9 1 11 -14 15 -16 15 -5 1 10 5 9 15 -5 8 -11 15 -15 15
-10 0 14 33 14 42 0 4 -6 8 0 8 13 0 24 0 24 15 5 13 -18 14 -18 8 6 -5 24 -5
24 10 5 14 -19 15 -18 11 10 l-4 30 15 -30 c14 -26 15 -27 10 -5 -14 62 -14
81 0 38 8 -26 20 -50 25 -53 6 -4 7 1 3 11 -4 11 -3 15 5 10 8 -5 9 1 2 21
-20 56 -28 123 -16 130 6 4 82 19 169 34 176 30 212 44 348 136 119 81 130 90
177 160 23 34 63 79 89 100 25 21 87 75 136 121 49 45 95 82 102 82 19 0 95
86 112 128 8 20 33 74 55 120 38 77 41 88 40 160 -3 145 -3 177 1 242 2 36 -3
90 -10 121 -13 58 -122 369 -166 474 -14 33 -43 136 -65 230 -44 187 -57 208
-130 220 -57 10 -62 13 -62 37 0 64 -20 96 -83 137 -66 44 -100 50 -152 27
-28 -12 -32 -11 -74 26 -25 21 -51 36 -58 34 -7 -3 -13 1 -13 8 0 8 -17 21
-37 29 -36 14 -40 14 -76 -6 -21 -12 -43 -27 -48 -33 -8 -10 -22 -7 -58 13
-27 13 -69 26 -95 27 -27 2 -54 10 -65 20 -11 10 -25 15 -31 11 -6 -3 -9 -1
-8 7 2 7 -3 12 -9 10 -7 -1 -13 5 -13 13 0 8 -12 21 -27 29 -16 8 -43 28 -62
45 -19 17 -38 28 -43 25 -5 -3 -7 0 -6 8 2 7 -5 12 -14 12 -19 -2 -25 12 -8
18 12 4 -22 44 -64 76 -19 14 -23 22 -13 22 19 0 57 51 57 77 0 10 16 31 35
46 32 26 36 33 35 75 -1 26 5 70 13 97 8 28 17 69 19 92 4 28 16 54 37 78 17
20 31 42 31 49 0 8 16 37 36 66 47 69 71 123 80 185 4 28 20 77 37 109 27 54
30 67 30 162 0 78 -4 110 -17 128 -10 16 -15 44 -15 76 1 28 -1 54 -5 57 -3 3
-6 -7 -7 -23 0 -16 -5 -38 -10 -49 -9 -20 -9 -20 -6 0 2 24 -46 110 -71 124
-9 6 -12 11 -6 11 16 0 64 -24 64 -32 0 -5 7 -8 17 -8 15 0 14 2 -2 20 -9 10
-17 31 -17 46 0 15 -4 21 -8 14 -5 -8 -21 -4 -59 15 -28 15 -51 29 -51 31 0
13 43 0 68 -21 30 -25 31 -25 37 -5 4 13 -2 36 -19 65 -14 24 -26 52 -26 62 0
11 -8 28 -19 39 -10 11 -27 45 -38 75 -22 57 -95 153 -126 164 -10 4 -25 1
-33 -6 -13 -11 -15 -10 -14 2 4 27 0 38 -25 63 -28 28 -67 42 -86 30 -7 -4 -9
-3 -6 3 4 7 -15 13 -51 18 -31 4 -66 12 -77 18 -11 6 -51 12 -90 13 -82 2
-108 6 -116 17 -4 5 -33 5 -66 0 -32 -5 -70 -6 -83 -3 -14 4 -40 3 -58 -1z
m29 -31 c-12 -33 -64 -70 -86 -62 -14 6 -13 10 7 32 24 26 80 64 85 58 2 -2
-1 -15 -6 -28z m165 23 c-3 -5 11 -12 32 -16 20 -4 43 -11 49 -17 9 -7 20 -5
39 6 l25 17 -16 -25 c-18 -27 -48 -41 -66 -30 -8 5 -8 9 1 14 8 5 -5 11 -31
15 -59 10 -86 24 -68 36 18 11 42 12 35 0z m204 -34 c0 -7 9 -18 19 -24 16
-10 20 -9 25 4 5 12 9 13 21 3 8 -7 12 -17 8 -24 -5 -7 -2 -7 8 1 12 10 17 8
28 -8 12 -20 11 -20 -17 -14 -18 3 -33 2 -37 -4 -10 -17 -23 -13 -30 8 -3 11
-22 27 -43 37 -27 13 -32 19 -19 22 9 2 17 8 17 13 0 6 5 7 10 4 6 -3 10 -12
10 -18z m-136 -56 c-2 -3 -12 3 -22 13 -16 17 -16 18 5 5 12 -7 20 -15 17 -18z
m127 10 c22 -18 23 -21 7 -37 -15 -15 -17 -15 -28 6 -10 19 -18 22 -53 17 -23
-3 -34 -3 -24 0 9 2 15 9 12 14 -4 5 8 6 27 4 26 -4 29 -3 13 4 -20 9 -20 10
1 10 12 1 32 -8 45 -18z m226 -13 c25 -24 29 -48 11 -66 -17 -17 -28 -15 -21
5 5 12 3 14 -7 8 -9 -5 -11 -4 -6 4 11 18 -4 51 -27 61 -21 9 -21 9 2 9 14 1
35 -9 48 -21z m-42 -19 c0 -8 -6 -13 -12 -11 -7 1 -13 -2 -13 -6 0 -4 6 -14
13 -21 10 -10 9 -11 -5 -6 -20 8 -20 10 -12 43 7 24 29 25 29 1z m-65 -12 c10
-3 7 -6 -8 -6 -13 -1 -38 -11 -55 -23 -17 -12 -27 -17 -23 -10 4 7 2 12 -6 12
-7 0 5 12 27 25 21 13 42 21 45 16 3 -4 12 -11 20 -14z m-226 7 c9 -3 13 -10
10 -15 -3 -5 2 -6 10 -3 10 4 16 1 16 -9 0 -13 -6 -13 -42 -4 -28 7 -36 13
-24 15 15 3 16 6 5 13 -16 10 1 12 25 3z m73 -16 c-3 -8 -6 -5 -6 6 -1 11 2
17 5 13 3 -3 4 -12 1 -19z m-32 -78 c14 -22 25 -44 25 -49 0 -5 7 -14 15 -21
8 -7 15 -24 14 -39 l-1 -26 -11 30 c-16 40 -59 105 -86 129 -11 11 -21 23 -21
28 0 18 41 -15 65 -52z m388 37 c3 -8 -1 -14 -9 -14 -15 0 -18 9 -7 20 9 9 10
9 16 -6z m-303 -36 c7 10 9 8 8 -8 -1 -12 -7 -19 -15 -16 -16 6 -26 40 -16 55
5 9 9 3 11 -16 3 -22 6 -26 12 -15z m-31 -21 c1 -13 0 -13 -9 0 -5 8 -9 24 -9
35 l0 20 9 -20 c5 -11 9 -27 9 -35z m350 7 c-7 -25 -7 -43 0 -56 9 -16 8 -18
-8 -14 -11 3 -18 10 -16 16 14 47 15 68 3 61 -7 -4 -4 2 7 13 11 11 21 20 22
19 1 -1 -2 -19 -8 -39z m-264 -5 c-8 -8 -25 10 -25 26 0 13 2 13 14 -4 8 -10
13 -21 11 -22z m55 23 c0 -8 13 -30 30 -48 16 -19 26 -37 23 -41 -4 -4 -1 -11
7 -16 13 -8 12 -10 -2 -10 -10 0 -18 -5 -18 -11 0 -5 -4 -7 -10 -4 -5 3 -10
16 -10 28 0 12 -9 39 -20 60 -22 41 -25 57 -10 57 6 0 10 -7 10 -15z m39 -18
c0 -21 -1 -21 -9 -2 -12 28 -12 37 0 30 6 -3 10 -16 9 -28z m-269 -9 c0 -12 8
-31 18 -42 15 -18 13 -17 -15 3 -34 23 -37 29 -27 55 8 21 24 10 24 -16z m484
-4 c3 -8 2 -12 -4 -9 -6 3 -10 10 -10 16 0 14 7 11 14 -7z m-359 -22 c-3 -3
-11 0 -18 7 -9 10 -8 11 6 5 10 -3 15 -9 12 -12z m195 2 c0 -8 -5 -12 -10 -9
-6 4 -8 11 -5 16 9 14 15 11 15 -7z m150 -5 c0 -6 -4 -7 -10 -4 -5 3 -10 11
-10 16 0 6 5 7 10 4 6 -3 10 -11 10 -16z m-259 -8 c17 -10 27 -21 22 -24 -4
-3 -21 6 -36 19 -34 29 -29 31 14 5z m126 -3 c-3 -8 -6 -5 -6 6 -1 11 2 17 5
13 3 -3 4 -12 1 -19z m164 -1 c-1 -4 -1 -17 -1 -29 0 -27 -5 -21 -14 15 -5 20
-3 28 4 25 6 -2 11 -7 11 -11z m-749 -6 c-10 -6 -4 -12 20 -21 40 -17 48 -27
47 -60 -1 -23 -2 -23 -9 5 -8 30 -8 30 -9 -8 -1 -26 3 -36 10 -31 7 4 10 1 7
-7 -9 -28 -33 -13 -48 29 -20 54 -34 63 -85 56 l-40 -6 35 25 c19 15 46 26 60
26 17 1 21 -2 12 -8z m437 -28 c10 -23 10 -26 0 -15 -7 6 -20 12 -28 12 -11 0
-10 -5 6 -22 21 -24 37 -58 26 -58 -3 0 -21 11 -39 25 -20 15 -31 20 -28 11 3
-8 12 -17 20 -20 8 -3 14 -10 14 -16 0 -6 -5 -8 -12 -4 -23 14 17 -39 42 -55
22 -15 23 -15 11 7 -6 12 -9 22 -6 22 3 0 8 0 13 0 4 0 7 -3 7 -7 1 -5 7 -19
14 -32 7 -13 8 -21 3 -17 -6 3 -13 -8 -17 -26 -11 -56 -15 -65 -28 -65 -9 0
-12 9 -9 26 5 23 6 24 13 6 6 -17 8 -16 8 8 1 39 -14 64 -49 82 -16 9 -37 26
-45 39 -14 21 -14 27 1 62 9 21 21 45 26 52 17 21 44 13 57 -15z m-179 6 c0
-5 5 -7 12 -3 6 4 8 3 5 -3 -4 -6 0 -16 7 -22 14 -12 39 -71 31 -71 -3 0 -11
15 -19 33 -8 17 -15 25 -15 17 -1 -8 6 -28 14 -44 9 -16 13 -31 10 -34 -3 -3
-5 0 -5 6 0 7 -7 12 -15 12 -9 0 -15 6 -14 13 1 6 0 19 -4 27 -19 51 -25 80
-16 80 5 0 9 -5 9 -11z m450 -26 c3 -3 -10 -4 -27 -1 -27 4 -33 1 -33 -14 0
-15 6 -17 29 -13 20 3 33 -1 45 -14 16 -18 16 -19 -1 -17 -11 0 -17 -5 -15
-14 3 -12 1 -13 -9 -2 -22 21 -33 13 -13 -10 l19 -22 -25 17 c-13 9 -36 17
-50 16 -23 -1 -22 -2 7 -10 20 -6 36 -19 45 -39 11 -25 14 -27 20 -12 6 16 7
16 7 0 2 -33 -19 -28 -64 17 -34 35 -45 52 -43 73 1 15 -1 33 -6 40 -14 23 4
29 56 20 29 -5 55 -12 58 -15z m-810 -23 c-33 -5 -40 -8 -27 -14 9 -5 17 -16
17 -25 0 -14 -2 -14 -10 -1 -6 10 -10 11 -10 3 0 -15 35 -53 48 -53 13 0 56
-39 50 -45 -9 -10 -117 36 -128 53 -5 9 -10 12 -10 6 0 -15 41 -51 65 -57 16
-4 15 -5 -5 -6 -14 0 -36 6 -48 15 -12 8 -27 12 -33 8 -8 -5 -10 3 -5 27 4 19
9 48 13 66 6 35 21 41 88 33 l40 -4 -45 -6z m102 -14 c15 -22 8 -30 -8 -8 -8
12 -22 22 -30 22 -8 0 -14 5 -14 10 0 12 41 -7 52 -24z m568 14 c0 -11 -6 -20
-14 -20 -9 0 -12 7 -9 20 3 11 9 20 14 20 5 0 9 -9 9 -20z m-399 -16 c14 -8
49 -84 48 -104 0 -8 -7 -1 -16 15 -23 44 -54 75 -75 75 -26 0 -22 -17 5 -24
32 -8 53 -52 29 -61 -10 -3 -21 0 -28 9 -6 9 -21 16 -32 16 -19 0 -20 3 -10
33 6 17 15 37 20 44 9 12 38 10 59 -3z m378 -18 c15 -8 32 -26 39 -41 14 -31
15 -38 3 -30 -6 3 -9 -2 -7 -12 2 -10 0 -27 -5 -38 l-8 -20 0 20 c-1 11 -15
43 -31 70 -41 69 -40 76 9 51z m291 -43 c0 -7 -5 -13 -11 -13 -5 0 -8 4 -5 8
3 5 -1 9 -9 9 -22 0 -19 -6 21 -43 27 -24 31 -31 16 -27 -33 8 -53 38 -59 85
l-6 43 27 -24 c14 -14 26 -30 26 -38z m-875 27 c4 -11 18 -33 31 -50 14 -16
27 -46 30 -67 l5 -38 -20 24 c-12 13 -21 32 -21 42 0 10 -17 36 -38 59 -22 22
-37 42 -34 45 13 12 41 3 47 -15z m84 -44 c8 -9 19 -16 26 -16 8 0 23 -12 34
-26 16 -20 18 -31 10 -45 -15 -28 -30 -24 -19 6 5 13 5 27 1 30 -5 2 -11 -5
-15 -18 -6 -21 -6 -21 -25 8 -10 17 -33 43 -50 59 -17 17 -31 34 -31 38 0 11
53 -17 69 -36z m441 29 c0 -8 5 -15 10 -15 6 0 10 -8 10 -17 -1 -17 -1 -17
-14 -1 -7 10 -15 16 -17 13 -3 -2 -5 5 -6 15 -1 11 2 20 8 20 5 0 9 -7 9 -15z
m-200 -55 c0 -8 -9 -1 -20 15 -11 17 -20 35 -20 40 1 16 40 -38 40 -55z m119
-50 l-1 -35 -10 38 c-6 20 -13 37 -17 37 -14 0 -51 41 -51 57 0 12 12 6 40
-22 33 -32 40 -46 39 -75z m391 27 c0 -5 -7 -2 -15 7 -8 8 -15 30 -15 48 l1
33 14 -40 c8 -22 15 -44 15 -48z m-146 -15 c-3 -15 -7 -35 -10 -44 -6 -21 -84
-92 -92 -83 -4 3 0 10 8 15 13 9 13 10 0 10 -11 1 -10 4 5 15 56 42 65 56 62
101 -3 41 -2 43 14 28 11 -10 16 -25 13 -42z m-1366 15 c26 -39 29 -79 7 -97
-10 -8 -14 -24 -11 -42 3 -22 -2 -37 -25 -61 -24 -27 -30 -30 -39 -17 -14 21
-12 60 5 95 l15 30 -3 -33 c-2 -18 0 -35 5 -38 9 -6 9 -4 12 46 1 19 -4 46
-10 59 -16 30 -6 91 14 91 4 0 17 -15 30 -33z m1261 11 c0 -13 -7 -39 -14 -58
-12 -32 -14 -33 -15 -10 -1 23 -2 23 -10 5 -8 -18 -9 -18 -9 -2 -1 25 26 87
38 87 6 0 11 -10 10 -22z m-1063 -37 c-9 -17 -11 -32 -5 -42 11 -18 11 -29 0
-29 -17 0 -23 40 -11 75 6 19 16 33 21 30 5 -4 3 -18 -5 -34z m1257 14 c-3 -9
-8 -14 -10 -11 -3 3 -2 9 2 15 9 16 15 13 8 -4z m-383 -60 c-6 -15 -13 -25
-16 -22 -3 3 -1 14 5 25 6 12 12 31 12 44 2 21 2 21 6 2 2 -11 -1 -33 -7 -49z
m485 55 c3 -6 -1 -7 -9 -4 -18 7 -21 14 -7 14 6 0 13 -4 16 -10z m-894 -27
c18 -16 30 -22 25 -15 -4 6 -3 12 3 12 16 0 19 -24 4 -47 -11 -16 -11 -23 -2
-29 7 -4 9 -3 6 2 -3 6 -2 16 4 24 7 12 9 10 9 -7 0 -12 -8 -29 -17 -39 -17
-17 -18 -17 -21 9 -2 17 -8 25 -14 21 -6 -4 -8 -2 -4 4 3 6 -5 23 -19 39 l-26
28 7 -25 c14 -48 12 -69 -8 -87 -20 -18 -20 -18 -14 13 6 26 3 32 -19 44 -22
12 -49 15 -82 11 -5 -1 8 -9 27 -19 24 -12 37 -27 42 -49 5 -18 17 -34 28 -38
11 -4 20 -10 20 -15 0 -15 -35 -48 -58 -55 -22 -6 -23 -5 -17 42 5 40 2 52
-16 73 -17 20 -20 21 -14 5 18 -48 16 -65 -9 -107 -26 -43 -29 -43 -27 2 2 20
0 22 -8 10 -6 -8 -11 -10 -12 -5 -1 6 -2 15 -4 20 -1 6 -3 15 -3 22 -1 6 -17
20 -36 31 -36 21 -53 60 -31 68 8 3 27 -6 42 -20 25 -23 22 -38 -3 -18 -5 4 4
-6 21 -21 30 -28 30 -28 33 -5 3 15 -5 29 -22 43 -33 26 -33 35 -1 35 29 0 43
24 25 44 -9 12 -2 12 39 -2 50 -15 52 -15 79 6 35 27 35 27 73 -5z m233 -22
c-20 -43 -60 -67 -85 -49 -11 8 -10 9 4 4 9 -3 17 -1 17 4 0 10 -13 14 -42 11
-10 -1 -18 3 -18 8 0 6 17 11 39 11 22 0 44 6 51 15 7 8 16 13 20 10 5 -3 12
4 15 16 4 11 9 18 12 15 3 -3 -3 -23 -13 -45z m704 24 c-3 -3 -9 2 -12 12 -6
14 -5 15 5 6 7 -7 10 -15 7 -18z m-164 -7 c-3 -4 -9 -8 -15 -8 -5 0 -9 4 -9 8
0 5 7 9 15 9 8 0 12 -4 9 -9z m-63 -31 c-10 -9 -11 -8 -5 6 3 10 9 15 12 12 3
-3 0 -11 -7 -18z m-1286 -54 c-22 -54 -57 -89 -77 -77 -14 9 -9 22 12 29 11 4
32 29 45 56 35 67 48 62 20 -8z m803 0 c-24 -24 -95 -42 -82 -21 3 5 -7 6 -23
3 -27 -5 -27 -5 -4 5 14 6 31 8 40 5 8 -3 17 -2 20 2 9 12 65 40 70 36 3 -2
-7 -15 -21 -30z m-776 -35 c-2 -30 -8 -46 -15 -41 -5 3 -7 1 -3 -5 3 -6 2 -13
-4 -17 -5 -3 -10 0 -10 8 0 15 31 110 34 105 2 -2 1 -24 -2 -50z m1313 -13
c-1 -51 -20 -91 -57 -114 -14 -9 -16 -6 -15 23 1 18 10 41 20 52 18 19 18 18
13 -11 l-6 -30 14 30 c14 29 14 45 0 87 -5 16 -2 19 13 16 15 -3 18 -13 18
-53z m-1501 -53 c4 -7 16 -10 27 -7 19 6 19 5 7 -17 -7 -12 -14 -25 -15 -27
-1 -2 -13 10 -27 25 l-26 29 20 -47 c19 -44 20 -50 5 -78 -9 -17 -20 -28 -26
-25 -5 4 -2 18 8 36 15 25 16 33 4 62 -16 41 -17 52 -6 107 l9 45 6 -45 c3
-25 9 -51 14 -58z m116 88 c0 -5 -5 -10 -11 -10 -5 0 -7 5 -4 10 3 6 8 10 11
10 2 0 4 -4 4 -10z m195 -19 c28 0 59 -2 70 -4 11 -2 28 0 38 5 18 9 54 -8 42
-20 -2 -3 -12 1 -22 9 -15 12 -14 10 2 -18 10 -17 29 -34 41 -37 12 -3 24 -16
28 -29 8 -33 83 -80 128 -81 20 0 34 -4 32 -8 -3 -5 2 -8 11 -8 9 0 14 4 11 9
-3 5 14 15 38 22 32 9 42 17 38 28 -3 9 -1 12 6 7 8 -4 15 9 23 39 10 40 15
45 39 45 15 0 47 -7 70 -15 49 -17 59 -15 153 31 37 19 76 34 85 33 11 -1 8
-4 -8 -9 -14 -4 -19 -8 -12 -9 8 -1 10 -6 6 -13 -6 -9 -3 -9 9 0 12 10 21 11
34 3 12 -7 13 -10 4 -11 -7 0 -11 -6 -8 -14 3 -8 1 -17 -6 -20 -7 -2 -2 -5 10
-5 25 -1 27 -22 3 -33 -11 -5 -10 -7 6 -7 28 -1 36 -11 23 -28 -6 -7 -8 -13
-3 -13 5 0 2 -5 -6 -10 -10 -6 -11 -13 -5 -19 7 -7 16 -7 25 -1 8 5 10 10 4
10 -6 0 -11 7 -11 15 0 10 8 13 26 9 20 -4 23 -3 11 5 -19 13 0 14 20 1 13 -9
13 -10 0 -10 -13 0 -13 -1 0 -11 12 -8 9 -9 -10 -4 -21 5 -23 4 -10 -7 8 -7
16 -18 17 -23 2 -13 -55 -17 -62 -4 -4 5 -11 6 -17 3 -6 -4 -8 -2 -4 4 3 6 2
13 -3 16 -5 4 -8 -2 -7 -11 2 -10 16 -23 32 -30 l29 -12 -38 1 c-20 1 -40 -2
-44 -5 -3 -4 4 -7 17 -7 22 0 22 -1 7 -18 -15 -16 -15 -19 6 -32 12 -8 31 -13
42 -13 11 1 5 -3 -12 -9 -18 -6 -33 -15 -33 -19 0 -12 38 -11 42 1 2 6 9 5 18
-1 11 -8 12 -12 3 -15 -7 -3 -9 -12 -6 -20 3 -9 -2 -14 -13 -15 -18 0 -18 -1
1 -8 12 -5 0 -8 -35 -7 -30 0 -68 -2 -83 -6 -23 -6 -28 -4 -23 8 4 9 -1 14
-14 14 -11 0 -20 -3 -20 -6 0 -12 43 -44 58 -44 9 0 13 -3 9 -6 -3 -4 -24 1
-46 10 -22 8 -53 14 -68 11 -15 -3 -43 -7 -62 -9 -18 -3 -38 -9 -44 -15 -18
-18 -45 -13 -61 11 -16 22 -21 15 -17 -19 3 -18 -29 -16 -51 4 -17 15 -18 15
-18 -6 0 -12 7 -24 15 -27 17 -7 21 -34 5 -34 -19 0 -10 -21 13 -29 18 -7 10
-10 -38 -16 -82 -11 -113 -23 -60 -25 32 -1 36 -3 20 -10 l-20 -9 20 0 c14 -1
20 -8 20 -26 0 -14 -4 -25 -8 -25 -5 0 -6 -4 -2 -9 3 -5 1 -13 -5 -16 -8 -5
-8 -11 0 -20 6 -7 7 -15 3 -18 -4 -3 -8 -25 -8 -49 0 -23 -4 -46 -10 -50 -6
-4 -2 -8 8 -8 19 0 23 -15 7 -25 -6 -4 -8 -11 -5 -16 4 -5 0 -9 -7 -10 -7 0
-2 -5 12 -11 14 -6 31 -10 38 -9 6 1 20 -3 30 -9 14 -9 12 -10 -12 -5 -26 6
-28 4 -16 -10 12 -14 10 -15 -15 -5 -15 6 -30 8 -33 5 -3 -3 1 -5 9 -5 12 0
11 -2 -1 -11 -12 -8 -12 -10 5 -8 44 3 48 -3 15 -22 -19 -11 -26 -17 -15 -13
11 3 27 7 35 8 9 1 21 5 28 9 8 6 10 3 6 -8 -4 -9 -13 -13 -23 -10 -11 3 -36
-9 -64 -31 -43 -34 -48 -35 -81 -24 -19 6 -37 18 -40 26 -3 8 -11 13 -18 12
-8 -2 -15 12 -19 37 -3 22 -8 31 -9 20 -6 -40 1 -59 36 -93 37 -36 145 -94
167 -89 8 1 13 -12 14 -38 l1 -40 -7 35 c-5 28 -8 31 -14 17 -4 -10 -7 -31 -7
-45 0 -19 -3 -23 -9 -13 -5 7 -6 23 -4 35 4 17 3 18 -6 6 -16 -23 -13 -48 9
-70 18 -18 18 -20 3 -20 -22 0 -55 20 -34 20 10 0 10 5 -3 25 -12 18 -15 36
-10 60 3 20 2 35 -3 35 -11 0 -43 -64 -43 -86 0 -8 -5 -12 -10 -9 -6 4 -8 12
-4 18 3 7 -2 3 -10 -7 -19 -23 -20 -11 -7 46 5 21 5 36 1 33 -5 -3 -11 -23
-15 -46 -8 -45 -13 -46 -21 -3 -3 16 -10 31 -16 35 -7 4 -6 13 2 29 6 12 9 24
6 27 -3 3 -10 -7 -16 -23 -6 -16 -17 -42 -24 -58 -15 -30 -8 -73 16 -104 7
-10 0 -6 -15 7 -15 14 -31 39 -36 55 -8 26 -9 27 -10 8 -1 -13 4 -32 9 -43 6
-10 7 -19 2 -19 -12 0 -32 41 -34 72 -1 15 -5 25 -8 23 -4 -2 -5 -19 -3 -37
l3 -33 -14 30 c-8 16 -12 38 -10 49 3 15 1 17 -8 8 -9 -9 -9 -24 1 -62 12 -46
9 -70 -8 -70 -4 0 -6 13 -5 30 1 16 -2 27 -7 24 -26 -16 2 -101 35 -107 17 -4
17 -5 -5 -6 -19 -1 -29 6 -39 27 -12 25 -13 26 -20 7 -4 -11 -2 -28 4 -38 9
-15 19 -17 67 -12 32 4 59 3 62 -2 4 -6 1 -10 -6 -10 -7 0 -34 -4 -62 -7 -57
-7 -76 3 -92 49 -15 46 -7 92 28 161 31 62 31 64 15 98 -9 19 -16 41 -16 50 0
9 -5 16 -10 16 -14 0 -3 -59 16 -87 16 -26 19 -46 3 -23 -9 13 -10 13 -6 -1 3
-9 1 -22 -4 -30 -8 -12 -10 -12 -19 1 -14 21 -12 33 3 24 6 -4 -5 11 -26 34
-28 31 -36 49 -33 67 3 14 0 25 -5 25 -20 0 -8 -61 22 -108 22 -36 30 -59 27
-83 -3 -31 -7 -35 -53 -50 -55 -18 -79 -50 -77 -103 1 -30 0 -30 -14 -11 -11
14 -14 34 -10 65 5 38 4 42 -6 23 -17 -35 -27 -27 -17 15 5 20 9 40 9 44 0 4
21 10 48 14 26 3 55 14 66 23 18 15 18 15 12 -9 -6 -21 -5 -22 4 -7 15 24 3
56 -32 89 -23 22 -29 34 -24 55 3 16 8 54 12 86 5 43 10 57 23 58 10 0 7 4 -9
11 -14 6 -28 11 -32 10 -4 -1 -10 7 -13 18 -4 11 -12 20 -20 20 -7 0 -19 17
-26 37 -12 37 -12 37 -21 13 -5 -14 -7 -35 -5 -47 2 -13 0 -23 -6 -23 -6 0 -7
18 -2 48 4 26 7 52 6 57 0 6 -1 33 -1 60 -1 28 -6 71 -13 97 -9 42 -8 53 11
95 13 28 24 79 27 123 3 41 10 92 16 115 14 58 17 97 7 117 -6 12 -3 29 8 50
9 18 17 46 16 62 -1 42 4 46 36 31 15 -8 50 -14 77 -14z m955 3 c13 -32 12
-37 0 -29 -5 3 -10 15 -10 25 0 10 -6 21 -12 23 -10 4 -10 6 0 6 7 1 17 -11
22 -25z m352 6 c-2 -7 3 -10 12 -7 9 4 18 1 22 -5 4 -7 3 -8 -4 -4 -7 4 -12 3
-12 -3 0 -5 9 -12 19 -16 18 -5 38 -35 23 -35 -4 1 -29 20 -56 44 -42 37 -45
43 -25 41 13 -1 23 -8 21 -15z m-612 -10 c-35 -28 -64 -34 -107 -22 l-38 10
51 -2 c38 -2 58 2 75 15 13 10 29 19 34 19 6 0 -1 -9 -15 -20z m210 0 c0 -5
-10 -10 -22 -9 -22 0 -22 1 -3 9 11 5 21 9 23 9 1 1 2 -3 2 -9z m340 -11 c0
-6 -4 -7 -10 -4 -5 3 -10 11 -10 16 0 6 5 7 10 4 6 -3 10 -11 10 -16z m-250
-9 c6 -11 8 -20 6 -20 -3 0 -10 9 -16 20 -6 11 -8 20 -6 20 3 0 10 -9 16 -20z
m-290 0 c0 -5 -5 -10 -11 -10 -5 0 -7 5 -4 10 3 6 8 10 11 10 2 0 4 -4 4 -10z
m-260 -19 c0 -4 -8 -7 -19 -7 -11 0 -17 6 -14 13 5 12 33 7 33 -6z m500 -3
c10 -6 7 -7 -10 -2 -14 3 -32 11 -40 16 -10 6 -7 7 10 2 14 -3 32 -11 40 -16z
m300 -3 c0 -8 -4 -15 -10 -15 -5 0 -7 7 -4 15 4 8 8 15 10 15 2 0 4 -7 4 -15z
m60 -51 c0 -44 -16 -82 -43 -104 -30 -25 -34 -17 -8 16 11 15 21 36 21 48 0
17 2 18 10 6 7 -11 10 -4 10 28 0 23 -4 42 -10 42 -5 0 -10 8 -10 18 1 33 30
-19 30 -54z m-362 37 c11 -7 11 -9 0 -13 -8 -3 -22 0 -33 8 -18 14 -18 14 1
14 10 0 25 -4 32 -9z m29 -30 c2 -23 -33 -35 -56 -20 -13 8 -12 9 4 5 11 -3
27 -1 35 4 13 9 13 10 0 10 -13 0 -13 1 0 10 8 5 15 10 15 10 1 0 1 -9 2 -19z
m-1145 -23 c24 -47 33 -82 19 -74 -6 4 -11 15 -11 25 0 21 -39 75 -48 66 -3
-3 4 -15 15 -28 24 -26 34 -73 23 -102 -7 -16 -9 -11 -9 19 -1 25 -9 48 -26
68 -20 24 -23 33 -14 44 18 22 33 17 51 -18z m1275 -5 c-3 -10 -5 -4 -5 12 0
17 2 24 5 18 2 -7 2 -21 0 -30z m-697 1 c0 -8 -4 -14 -9 -14 -11 0 -22 26 -14
34 9 9 23 -3 23 -20z m613 -11 c-7 -3 -13 -11 -13 -19 0 -23 20 -6 35 28 7 17
15 26 18 21 9 -14 -26 -77 -44 -81 -19 -4 -33 39 -23 70 6 19 7 19 23 3 12
-13 13 -19 4 -22z m-1238 -36 c6 1 11 -9 11 -22 2 -24 2 -24 -19 -4 -41 38
-43 20 -2 -36 9 -14 11 -25 5 -35 -8 -12 -10 -12 -10 -1 0 7 -11 26 -25 43
-29 35 -31 48 -9 91 l17 31 11 -34 c7 -19 16 -34 21 -33z m1605 56 c0 -5 -5
-15 -10 -23 -8 -12 -10 -11 -10 8 0 12 5 22 10 22 6 0 10 -3 10 -7z m-1052
-10 c-10 -2 -26 -2 -35 0 -10 3 -2 5 17 5 19 0 27 -2 18 -5z m893 -20 c8 -8 4
-11 -13 -10 -14 1 -25 7 -25 13 0 14 23 12 38 -3z m-146 -23 c-10 -11 -21 -18
-23 -15 -3 3 3 12 14 20 27 20 30 18 9 -5z m346 13 c6 -63 6 -83 -2 -83 -4 0
-6 -7 -3 -15 4 -8 2 -15 -3 -15 -17 0 -23 13 -12 27 7 7 9 30 6 53 -3 22 -1
40 4 40 5 0 9 -3 10 -7z m-223 -30 c-29 -33 -59 -96 -54 -112 5 -12 3 -12 -8
2 -15 20 -12 63 6 84 9 11 53 38 67 42 2 1 -3 -7 -11 -16z m162 13 c0 -3 -4
-8 -10 -11 -5 -3 -10 -1 -10 4 0 6 5 11 10 11 6 0 10 -2 10 -4z m-248 -56 c-4
-43 -17 -49 -48 -24 -18 14 -18 15 4 4 30 -15 34 -11 23 27 -10 34 -6 44 13
37 7 -3 10 -20 8 -44z m-112 -7 c13 -9 31 -24 40 -32 9 -9 25 -21 35 -26 21
-13 24 -63 4 -76 -23 -14 -29 -10 -29 17 0 14 -8 42 -17 61 -14 30 -18 33 -23
17 -6 -15 -8 -14 -14 9 -4 17 -11 25 -18 21 -6 -4 -8 -3 -4 4 3 5 0 13 -6 15
-7 3 -8 6 -3 6 6 1 21 -7 35 -16z m265 -1 c-11 -9 -19 -26 -17 -37 3 -19 2
-19 -9 -2 -8 15 -7 23 7 38 9 10 22 19 28 19 6 -1 2 -8 -9 -18z m-1547 -24
c13 -22 14 -31 4 -50 -12 -23 -12 -22 -7 5 7 37 1 34 -23 -11 -17 -34 -18 -39
-4 -60 18 -28 11 -38 -17 -20 -25 16 -27 40 -4 79 12 21 14 32 6 40 -15 15 -4
51 14 47 8 -2 22 -15 31 -30z m1238 6 c18 -14 18 -14 -6 -3 -31 14 -36 19 -24
19 6 0 19 -7 30 -16z m-1303 -18 c3 -7 -1 -25 -8 -39 -7 -15 -16 -34 -18 -44
-2 -10 -2 -2 0 17 3 19 6 45 7 58 1 25 11 29 19 8z m162 -5 c3 -5 1 -12 -5
-16 -5 -3 -10 1 -10 9 0 18 6 21 15 7z m1090 -1 c-12 -5 -14 -9 -6 -9 8 -1 12
-3 9 -6 -3 -3 -13 -2 -22 1 -14 5 -15 9 -4 15 7 5 20 8 28 8 10 0 8 -3 -5 -9z
m475 -10 c-8 -5 -19 -10 -25 -10 -5 0 -3 5 5 10 8 5 20 10 25 10 6 0 3 -5 -5
-10z m-395 -20 c3 -5 -4 -6 -15 -3 -11 3 -22 9 -25 13 -3 5 4 6 15 3 11 -3 22
-9 25 -13z m-1165 -77 c0 -44 -5 -58 -25 -78 -13 -14 -30 -25 -37 -25 -9 0 -9
3 2 10 12 8 10 10 -10 10 l-25 0 25 13 c19 9 27 24 34 60 8 42 0 80 -11 49 -7
-19 -35 -44 -42 -37 -3 4 2 11 12 17 14 7 15 13 7 23 -8 10 -6 17 11 29 21 14
24 14 41 -1 13 -12 18 -31 18 -70z m1490 72 c7 -9 11 -17 8 -20 -2 -2 -12 4
-21 15 -9 11 -13 20 -8 20 5 0 14 -7 21 -15z m82 8 c-6 -2 -10 -8 -8 -11 2 -4
-7 -8 -20 -8 -13 -1 -24 2 -24 8 0 5 4 7 8 4 4 -2 14 -1 22 5 8 5 20 8 25 8 6
0 4 -3 -3 -6z m-209 -33 c35 0 25 -20 -11 -23 -14 -1 -18 -5 -12 -11 6 -6 22
-4 45 7 48 23 52 21 17 -8 -49 -41 -102 -29 -102 23 0 18 4 23 16 18 9 -3 30
-6 47 -6z m254 -22 c-3 -8 -6 -5 -6 6 -1 11 2 17 5 13 3 -3 4 -12 1 -19z m-19
-34 c-4 -3 -12 5 -18 18 -12 22 -12 22 6 6 10 -10 15 -20 12 -24z m-304 -29
c3 -8 1 -15 -3 -15 -5 0 -11 7 -15 15 -3 8 -1 15 3 15 5 0 11 -7 15 -15z
m-156 -23 c2 -7 -1 -12 -7 -12 -6 0 -11 5 -11 11 0 5 -5 7 -12 3 -7 -4 -8 -3
-4 5 9 14 28 10 34 -7z m202 -31 c10 -2 8 -5 -6 -11 -12 -5 -30 -7 -40 -5 -11
2 -23 4 -29 4 -5 1 -4 5 3 10 12 7 24 8 72 2z m116 -13 l19 -23 -25 20 c-14
11 -27 21 -29 22 -2 2 0 3 6 3 5 0 18 -10 29 -22z m-269 6 c-3 -3 -12 -4 -19
-1 -8 3 -5 6 6 6 11 1 17 -2 13 -5z m346 -14 c-3 -11 -9 -20 -14 -20 -11 0
-11 3 -3 24 9 23 23 20 17 -4z m-259 -35 c9 -25 7 -47 -4 -40 -5 3 -10 0 -10
-7 0 -16 -35 39 -45 71 -7 22 -6 22 23 7 16 -8 32 -23 36 -31z m-1334 25 c9
-5 13 -22 12 -44 -2 -21 5 -47 15 -62 17 -27 17 -27 -7 -19 -55 17 -69 25 -79
43 -6 11 -6 24 0 33 5 7 9 24 9 37 0 23 23 29 50 12z m1002 -19 c26 -25 20
-35 -14 -22 -29 11 -134 8 -163 -4 l-20 -8 20 22 c11 13 29 27 40 32 32 14
112 2 137 -20z m585 -23 c-3 -8 -6 -5 -6 6 -1 11 2 17 5 13 3 -3 4 -12 1 -19z
m-423 4 c2 -4 -10 -8 -27 -9 -30 -1 -30 -1 -7 7 14 4 26 8 27 9 1 1 4 -3 7 -7z
m203 -34 c-3 -7 -5 -2 -5 12 0 14 2 19 5 13 2 -7 2 -19 0 -25z m100 10 c-3 -8
-6 -5 -6 6 -1 11 2 17 5 13 3 -3 4 -12 1 -19z m-584 -8 c6 -22 41 -27 53 -8 5
8 1 9 -12 5 -18 -7 -18 -6 1 8 23 18 31 5 16 -24 -14 -25 -48 -36 -67 -20 -12
10 -13 9 -8 -4 5 -14 1 -14 -30 -5 -42 13 -44 18 -15 37 18 11 23 11 31 -1 7
-9 8 -7 5 10 -6 28 18 30 26 2z m-83 0 c0 -5 -5 -10 -11 -10 -5 0 -7 5 -4 10
3 6 8 10 11 10 2 0 4 -4 4 -10z m195 -17 c9 -16 14 -20 11 -10 -3 11 -2 15 4
12 14 -9 12 -32 -2 -42 -7 -4 -33 -11 -58 -15 -44 -7 -44 -7 9 -4 53 3 54 3
27 -11 -32 -17 -31 -18 7 -27 19 -5 27 -3 27 7 0 10 8 13 25 9 15 -2 25 0 25
7 0 6 5 11 11 11 5 0 7 -5 3 -12 -7 -12 8 -5 35 16 7 6 28 10 45 9 29 -2 30
-2 6 7 -25 8 -24 8 5 8 17 0 41 3 55 6 14 4 18 3 10 0 -8 -4 -23 -15 -33 -25
-18 -16 -18 -17 0 -28 13 -7 14 -10 4 -11 -11 0 -9 -4 5 -14 18 -14 18 -15 -8
-25 -30 -11 -31 -36 -2 -59 18 -14 18 -14 0 -8 -10 3 -28 4 -39 0 -20 -6 -20
-7 4 -20 22 -12 22 -13 4 -14 -16 0 -17 -2 -6 -9 10 -7 4 -9 -20 -8 -24 1 -33
-2 -31 -11 1 -8 -7 -16 -18 -19 -11 -3 -20 -9 -20 -13 0 -4 -9 -18 -21 -31
l-21 -24 34 -6 c27 -5 28 -7 8 -8 -14 -1 -36 -8 -49 -15 -20 -11 -21 -14 -7
-19 10 -4 14 -11 11 -17 -3 -5 -1 -10 4 -10 19 0 12 -28 -9 -33 -16 -4 -19 -1
-16 24 3 24 1 27 -10 18 -8 -6 -14 -22 -14 -35 0 -17 -5 -22 -20 -19 -11 2
-23 -1 -26 -7 -4 -7 -2 -8 4 -4 14 8 15 -3 4 -21 -6 -9 -16 -6 -37 12 -47 38
-49 40 -65 41 -8 1 -24 5 -35 9 -11 4 3 -8 30 -28 45 -30 51 -39 52 -71 1 -20
-2 -36 -5 -36 -4 0 -17 17 -30 38 -22 34 -24 31 -7 -10 14 -34 -10 -17 -32 22
-12 22 -17 40 -11 40 6 0 2 12 -7 27 -10 14 -20 42 -22 62 -3 20 -11 47 -20
59 -8 13 -13 25 -11 27 8 8 25 -12 51 -57 15 -26 32 -50 37 -53 14 -9 -56 107
-81 133 -11 12 -30 22 -42 23 -21 0 -21 1 -2 9 17 7 16 9 -10 10 -21 2 -24 4
-11 7 11 3 25 11 33 18 10 11 10 14 -3 19 -8 3 -12 2 -9 -3 3 -5 1 -13 -5 -16
-7 -4 -10 5 -8 24 1 20 8 31 18 32 8 1 4 5 -10 9 -17 5 -19 8 -7 9 18 1 23 16
7 26 -15 9 1 37 18 30 13 -5 13 -3 1 11 -13 16 -10 17 39 11 28 -3 52 -2 52 2
0 11 -25 21 -50 21 -21 0 -34 36 -15 44 7 2 12 -3 11 -12 -1 -19 47 -33 118
-32 53 0 86 20 86 52 0 25 7 23 25 -9z m596 -10 c-9 -18 -11 -25 -11 -42 0 -9
-57 -71 -66 -71 -3 0 0 8 5 19 6 10 8 21 5 24 -3 2 6 13 19 24 13 10 29 28 36
41 6 12 14 22 17 22 2 0 0 -8 -5 -17z m-291 -28 c-5 -14 -9 -29 -9 -33 1 -4 1
-23 0 -42 -1 -28 -4 -32 -12 -18 -10 18 -4 69 12 99 14 27 20 23 9 -6z m82 -7
c-20 -20 -14 -48 14 -58 14 -6 30 -8 35 -5 5 4 6 -1 3 -10 -11 -27 -59 -46
-88 -35 -23 8 -38 23 -18 18 4 -1 25 2 47 6 l40 8 -33 13 c-17 8 -32 20 -32
27 0 18 30 61 38 53 3 -3 0 -11 -6 -17z m93 -74 c-8 -9 -15 -23 -15 -31 0 -9
-3 -13 -6 -10 -10 9 17 68 27 61 5 -3 2 -12 -6 -20z m-818 -20 c-3 -3 -12 -4
-19 -1 -8 3 -5 6 6 6 11 1 17 -2 13 -5z m560 -10 c-3 -3 -12 -4 -19 -1 -8 3
-5 6 6 6 11 1 17 -2 13 -5z m3 -24 c0 -5 -7 -7 -15 -4 -8 4 -15 8 -15 10 0 2
7 4 15 4 8 0 15 -4 15 -10z m210 -6 c0 -6 -55 -29 -93 -38 -47 -11 -21 12 31
28 54 17 62 18 62 10z m-131 -26 c-17 -34 -19 -34 -19 -5 0 18 5 27 15 27 13
0 14 -4 4 -22z m181 -23 c0 -5 -5 -3 -10 5 -5 8 -10 20 -10 25 0 6 5 3 10 -5
5 -8 10 -19 10 -25z m-215 -5 c2 -13 0 -30 -5 -39 -8 -14 -9 -13 -8 4 0 11 0
25 -2 30 -4 16 0 39 5 33 3 -3 8 -16 10 -28z m140 11 c-10 -9 -85 -23 -85 -16
0 5 59 23 80 24 8 1 10 -2 5 -8z m-225 -51 c18 -12 2 -12 -25 0 -13 6 -15 9
-5 9 8 0 22 -4 30 -9z m160 6 c0 -2 -7 -7 -16 -10 -8 -3 -12 -2 -9 4 6 10 25
14 25 6z m76 -4 c-5 -8 -66 -4 -66 4 0 2 16 4 36 4 19 0 33 -4 30 -8z m-273
-19 c-13 -2 -23 -9 -23 -14 0 -6 -5 -7 -11 -3 -15 9 9 24 36 22 17 -1 17 -1
-2 -5z m207 -13 c-19 -12 -30 -12 -30 -1 0 10 31 20 40 14 2 -2 -2 -8 -10 -13z
m51 -13 c-10 -9 -11 -8 -5 6 3 10 9 15 12 12 3 -3 0 -11 -7 -18z m-1303 -23
c-4 -3 -12 5 -18 18 -12 22 -12 22 6 6 10 -10 15 -20 12 -24z m-71 20 c-3 -3
-12 -4 -19 -1 -8 3 -5 6 6 6 11 1 17 -2 13 -5z m1193 -94 c0 -22 -36 40 -43
75 -6 25 -3 22 18 -15 13 -25 24 -52 25 -60z m22 61 c17 -25 22 -44 17 -52 -7
-11 -9 -10 -9 5 0 10 -11 29 -25 42 -14 13 -25 28 -25 34 0 21 17 9 42 -29z
m-122 19 c-8 -5 -19 -10 -25 -10 -5 0 -3 5 5 10 8 5 20 10 25 10 6 0 3 -5 -5
-10z m240 -2 c-14 -5 -33 -14 -42 -19 -23 -12 -31 -11 -23 1 3 5 20 14 38 19
43 12 58 12 27 -1z m-1320 -26 c-7 -3 -19 3 -28 13 -16 15 -15 16 12 4 15 -7
23 -15 16 -17z m27 6 c-3 -8 -6 -5 -6 6 -1 11 2 17 5 13 3 -3 4 -12 1 -19z
m657 11 c-2 -4 1 -9 8 -11 7 -3 8 -7 3 -10 -6 -3 -18 2 -27 11 -16 16 -16 17
2 17 10 0 17 -3 14 -7z m450 -41 c23 -32 20 -91 -5 -119 -20 -23 -20 -23 -9
-2 11 24 8 52 -9 93 -9 21 -10 17 -5 -23 6 -45 4 -49 -30 -82 -20 -18 -36 -40
-36 -48 0 -16 24 -40 32 -32 2 3 5 -2 5 -10 0 -19 -6 -19 -29 2 -16 14 -18 14
-13 1 3 -8 17 -20 31 -27 31 -14 37 -14 29 -1 -3 6 -1 10 4 10 17 0 51 -38 51
-56 0 -14 -2 -14 -16 1 -9 9 -22 14 -30 11 -7 -3 -18 2 -24 10 -7 8 -19 14
-26 14 -7 0 -21 11 -30 25 -19 29 -13 54 28 111 21 29 28 50 26 76 -2 31 16
67 34 68 4 0 14 -10 22 -22z m196 1 c-14 -11 -33 -30 -42 -42 l-18 -22 0 23
c0 15 11 29 33 42 42 26 59 25 27 -1z m-294 -123 c-20 -29 -36 -60 -36 -70 0
-22 19 -58 39 -73 10 -8 11 -12 4 -13 -7 0 -23 11 -37 24 -37 34 -36 90 4 138
16 20 35 49 42 64 11 29 12 29 16 5 2 -15 -9 -41 -32 -75z m258 32 c-16 -30
-16 -32 -1 -19 12 9 17 10 17 2 0 -17 -29 -26 -42 -13 -8 8 -4 18 13 36 31 33
33 32 13 -6z m-324 -24 c0 -8 -19 -13 -24 -6 -3 5 1 9 9 9 8 0 15 -2 15 -3z
m220 -3 c0 -6 -4 -13 -10 -16 -5 -3 -10 -15 -10 -26 0 -11 -4 -17 -10 -14 -14
8 -13 38 2 53 14 14 28 16 28 3z m-1062 -34 c-2 -15 -16 -24 -53 -34 -58 -17
-65 -23 -68 -52 -1 -23 -13 -28 -20 -8 -5 14 23 67 36 67 21 0 77 33 77 46 0
8 6 11 16 7 8 -3 14 -15 12 -26z m650 -56 c2 -49 -1 -71 -8 -66 -5 3 -11 34
-11 68 -1 34 -4 51 -6 37 -3 -13 -11 -33 -19 -44 -14 -20 -14 -20 -14 -1 0 11
-3 36 -6 56 l-6 37 33 -7 34 -7 3 -73z m-88 58 c8 -13 8 -24 2 -32 -6 -7 -12
-23 -15 -37 -2 -14 -5 1 -6 33 -1 62 2 68 19 36z m189 -3 c7 -8 8 -17 3 -20
-6 -3 -12 3 -15 14 -6 24 -4 25 12 6z m466 -19 c-4 -8 -13 -18 -20 -21 -9 -3
-12 0 -8 10 3 7 10 14 15 14 6 0 7 8 3 18 -4 12 -3 14 5 6 6 -6 8 -18 5 -27z
m-242 -6 c-3 -10 0 -22 6 -25 6 -4 11 -12 11 -18 0 -6 -9 -3 -19 6 -18 16 -19
56 -1 56 5 0 6 -8 3 -19z m-443 -66 c0 -5 -5 -3 -10 5 -5 8 -10 20 -10 25 0 6
5 3 10 -5 5 -8 10 -19 10 -25z m260 17 c0 -5 -7 -17 -16 -28 -8 -10 -12 -12
-8 -4 4 8 3 11 -1 7 -11 -10 -15 -37 -6 -37 4 0 11 3 17 8 5 4 1 -1 -10 -11
-10 -10 -16 -20 -13 -23 7 -7 47 37 47 53 0 7 5 13 10 13 6 0 10 -8 10 -17 0
-25 -37 -83 -52 -83 -9 0 -8 -3 2 -10 9 -6 10 -10 3 -10 -6 0 -25 -11 -41 -25
-18 -15 -33 -21 -37 -15 -8 12 10 46 33 60 15 10 14 10 -4 5 -16 -4 -23 0 -27
16 -8 31 0 45 46 79 45 33 47 34 47 22z m-70 -6 c0 -2 -7 -7 -16 -10 -8 -3
-12 -2 -9 4 6 10 25 14 25 6z m-655 -164 c5 -21 18 -38 36 -49 16 -10 29 -26
29 -36 0 -16 -5 -15 -47 9 -27 15 -56 36 -65 47 -22 24 -24 62 -4 54 12 -5 14
5 13 46 -2 79 16 96 25 22 4 -33 10 -75 13 -93z m298 121 c-7 -2 -19 -2 -25 0
-7 3 -2 5 12 5 14 0 19 -2 13 -5z m-370 -75 c-3 -40 -10 -81 -14 -90 -15 -29
-10 -55 16 -79 30 -29 32 -39 5 -32 -11 3 -27 23 -37 44 -9 21 -20 39 -24 39
-12 0 0 59 17 85 10 16 12 25 5 25 -14 0 -7 46 10 66 22 27 28 13 22 -58z
m495 37 c92 -28 75 -37 -56 -34 -116 4 -139 -2 -58 -15 41 -7 61 -16 34 -16
-20 0 -31 -27 -15 -34 7 -2 5 -5 -5 -5 -9 -1 -24 -4 -33 -8 -16 -6 -16 -4 1
23 l18 29 -23 -23 c-12 -12 -37 -28 -56 -36 -46 -19 -75 -51 -75 -82 0 -16 -4
-23 -11 -18 -17 10 -2 61 30 102 16 20 32 52 36 70 12 58 106 78 213 47z m456
-9 c40 -17 61 -42 26 -31 -17 5 -21 4 -15 -5 5 -9 4 -11 -4 -6 -6 4 -9 12 -6
17 4 5 -5 9 -18 9 -14 0 -27 7 -31 15 -7 19 5 19 48 1z m-101 -53 c-14 -28
-34 -44 -86 -70 -37 -19 -75 -33 -85 -31 -12 3 -7 10 21 24 22 11 38 25 36 30
-1 5 24 23 57 39 36 19 60 38 63 50 2 12 6 15 8 8 3 -7 -4 -29 -14 -50z m207
-3 c0 -5 -2 -10 -4 -10 -3 0 -8 5 -11 10 -3 6 -1 10 4 10 6 0 11 -4 11 -10z
m-204 -35 c-30 -39 -19 -48 15 -12 21 22 21 22 10 0 -6 -11 -24 -27 -41 -35
-16 -7 -30 -16 -30 -19 0 -8 -57 -6 -65 2 -3 3 18 16 45 29 27 13 57 34 65 47
9 13 18 23 21 23 4 0 -6 -16 -20 -35z m-257 -1 c-8 -10 -6 -12 10 -11 12 1 21
7 21 14 0 7 4 13 10 13 25 0 -25 -68 -68 -90 -74 -40 -93 -77 -78 -150 l7 -35
-20 30 c-27 39 -27 98 0 136 13 19 16 29 8 29 -7 0 -4 6 7 15 10 8 14 15 8 15
-12 0 -52 -40 -44 -45 3 -2 -6 -16 -20 -32 -16 -19 -24 -40 -25 -65 0 -37 -18
-58 -31 -36 -4 6 -3 9 2 6 5 -4 9 16 9 43 0 27 -1 49 -3 49 -1 0 -7 -10 -12
-22 -9 -22 -9 -22 -9 3 -1 21 7 30 34 43 19 9 35 19 35 22 0 9 -54 -6 -60 -17
-5 -7 -10 -8 -14 -1 -10 17 -40 7 -53 -19 -22 -42 -16 -104 13 -138 14 -17 22
-31 17 -31 -36 2 -103 78 -103 117 0 33 23 84 47 106 22 19 31 22 114 32 30 4
63 12 74 17 14 8 17 7 10 -1 -6 -6 -28 -17 -50 -26 l-40 -15 35 6 c19 3 47 12
62 19 22 11 26 10 21 -1 -7 -19 6 -18 31 3 15 13 13 9 -4 -11 -25 -28 -25 -29
-2 -17 13 7 28 22 33 35 6 12 17 23 25 23 10 0 11 -4 3 -13z m361 1 c0 -2 -7
-5 -15 -9 -9 -3 -15 0 -15 9 0 9 6 12 15 9 8 -4 15 -7 15 -9z m143 -32 c4 -18
3 -34 -2 -37 -4 -3 -8 11 -9 30 -1 19 -4 40 -8 47 -5 8 -4 9 3 2 6 -5 13 -24
16 -42z m31 12 c3 -8 1 -15 -4 -15 -6 0 -10 7 -10 15 0 8 2 15 4 15 2 0 6 -7
10 -15z m-920 -31 c-10 -24 -13 -51 -9 -78 5 -33 4 -38 -6 -23 -6 11 -11 34
-12 53 -1 25 -3 30 -10 19 -4 -8 -5 -20 -1 -27 4 -7 3 -8 -4 -4 -30 18 2 96
38 96 18 0 18 -2 4 -36z m448 -1 c-6 -10 -33 -36 -60 -58 -56 -45 -73 -72 -66
-106 4 -23 4 -23 -7 1 -22 45 -18 53 54 124 67 66 102 84 79 39z m-642 -3 c0
-12 15 -29 41 -46 33 -21 40 -30 36 -50 -5 -27 9 -34 15 -6 7 29 -14 62 -49
79 -19 8 -32 18 -29 21 10 9 81 -35 93 -59 10 -19 10 -28 -1 -44 -19 -29 -51
-33 -43 -6 3 15 -3 27 -25 43 -16 13 -36 35 -44 50 -17 32 -17 38 -4 38 6 0
10 -9 10 -20z m935 6 c0 -15 -33 -15 -39 1 -4 10 0 14 17 11 12 -2 22 -7 22
-12z m-622 -56 c-3 -12 -8 -19 -11 -16 -5 6 5 36 12 36 2 0 2 -9 -1 -20z m492
11 c-6 -6 -45 -14 -86 -17 -59 -5 -81 -12 -103 -30 -16 -14 -24 -29 -20 -37 5
-9 4 -9 -6 0 -19 18 3 57 42 76 35 17 189 24 173 8z m120 -1 c3 -5 2 -10 -4
-10 -5 0 -13 5 -16 10 -3 6 -2 10 4 10 5 0 13 -4 16 -10z m-49 -50 c0 -11 -4
-20 -8 -20 -4 0 -8 9 -8 20 0 11 4 20 8 20 4 0 8 -9 8 -20z m65 -13 c-16 -16
-25 -1 -10 16 8 8 16 11 18 5 2 -5 -2 -15 -8 -21z m-737 -49 c10 -16 13 -28 7
-28 -6 0 -11 5 -11 10 0 6 -7 10 -15 10 -8 0 -17 12 -21 28 -3 15 -8 34 -10
42 -5 17 26 -21 50 -62z m853 50 c-3 -8 -6 -5 -6 6 -1 11 2 17 5 13 3 -3 4
-12 1 -19z m-738 -23 c13 -37 61 -71 86 -61 13 5 95 -47 95 -61 0 -3 -8 1 -17
9 -10 9 -23 14 -28 12 -6 -3 -35 4 -65 14 -56 19 -83 47 -94 95 -9 39 8 33 23
-8z m451 21 c19 0 29 -1 22 -4 -6 -2 -10 -8 -6 -13 3 -5 2 -9 -3 -10 -4 -1
-26 -3 -47 -5 -25 -2 -49 -13 -67 -30 -16 -16 -29 -22 -29 -15 0 7 -6 11 -14
8 -8 -3 -16 2 -19 14 -4 14 0 19 14 19 10 0 19 4 19 10 0 16 54 39 75 32 11
-4 36 -6 55 -6z m407 -53 c-2 -16 -4 -5 -4 22 0 28 2 40 4 28 2 -13 2 -35 0
-50z m-1147 47 c0 -5 -6 -10 -14 -10 -8 0 -18 5 -21 10 -3 6 3 10 14 10 12 0
21 -4 21 -10z m543 -21 c2 -14 -3 -29 -12 -37 -14 -11 -14 -11 2 -6 12 4 17 1
17 -12 0 -14 -2 -16 -9 -6 -4 8 -11 13 -15 13 -10 -1 -10 1 -2 43 8 41 14 43
19 5z m267 17 c0 -2 -8 -10 -17 -17 -16 -13 -17 -12 -4 4 13 16 21 21 21 13z
m-780 -30 c23 -5 39 -16 46 -31 11 -22 9 -24 -18 -30 -17 -4 -35 -2 -43 5 -8
7 -15 9 -15 5 0 -4 -7 -2 -15 5 -24 20 -18 3 8 -20 12 -12 39 -29 60 -37 42
-17 50 -33 12 -25 -19 3 -24 1 -20 -9 7 -19 92 -57 149 -68 30 -5 61 -22 94
-49 27 -23 74 -55 105 -71 31 -16 53 -32 49 -36 -3 -3 1 -3 10 0 8 3 22 -1 31
-9 18 -18 31 -21 22 -6 -4 7 3 9 22 6 40 -6 41 -7 13 -16 -22 -7 -20 -8 15
-10 32 -1 36 -3 20 -10 -18 -8 -18 -9 5 -9 20 -1 22 -3 10 -12 -11 -8 -6 -9
21 -7 30 3 36 1 31 -12 -5 -13 -3 -13 10 -2 13 10 18 10 24 1 5 -8 3 -9 -6 -4
-9 5 -11 4 -6 -3 4 -7 22 -12 39 -13 31 -1 31 -1 7 -10 -18 -6 -9 -7 30 -4 34
2 44 1 26 -3 -33 -8 -37 -23 -10 -32 15 -6 13 -8 -10 -14 -15 -4 -37 -4 -49
-1 -20 5 -20 5 -4 -6 18 -10 17 -12 -10 -28 -25 -16 -29 -16 -41 -2 -11 13
-11 12 -2 -7 8 -17 18 -22 31 -19 11 3 16 1 13 -5 -4 -5 -19 -8 -35 -6 -15 3
-26 1 -23 -4 3 -4 14 -8 24 -8 10 0 22 -5 26 -12 4 -7 3 -8 -5 -4 -13 8 -92
-24 -86 -35 7 -10 95 25 105 41 4 7 15 10 24 7 9 -4 16 -2 16 3 0 6 5 10 11
10 5 0 7 -6 4 -12 -4 -7 5 0 18 16 14 16 31 26 38 23 10 -4 9 -6 -3 -6 -10 -1
-18 -8 -18 -17 0 -14 7 -15 38 -11 20 4 33 3 27 -1 -48 -34 57 -50 147 -22 41
13 67 16 77 10 11 -7 12 -9 3 -10 -7 0 -10 -5 -6 -11 4 -8 0 -7 -15 1 -27 14
-71 3 -50 -12 10 -7 3 -8 -21 -5 -19 3 -29 3 -22 0 6 -2 10 -8 7 -13 -9 -14
39 2 52 17 6 8 17 12 23 8 20 -12 -33 -53 -85 -66 -28 -7 -55 -17 -61 -23 -6
-6 -21 -18 -33 -26 -11 -8 -21 -18 -21 -22 0 -18 -69 -80 -81 -73 -8 5 -10 4
-5 -3 4 -7 1 -12 -8 -12 -9 0 -15 -4 -13 -9 1 -4 -9 -18 -23 -30 -14 -13 -18
-19 -10 -15 24 13 152 120 182 152 17 18 43 32 65 37 21 4 61 24 90 46 29 21
54 39 57 39 3 0 8 -16 12 -35 5 -26 1 -41 -17 -67 -23 -33 -23 -33 -1 -14 25
22 27 21 36 -16 4 -19 2 -28 -6 -28 -10 0 -10 -2 -1 -8 9 -5 4 -16 -16 -37
-72 -78 -88 -103 -27 -45 79 76 77 54 -5 -45 -32 -38 -56 -71 -54 -73 2 -2 29
21 61 52 45 45 59 54 70 45 8 -6 14 -16 14 -22 0 -14 -53 -97 -63 -97 -4 0 6
20 23 45 24 35 29 49 21 63 -8 14 -11 14 -12 2 -1 -8 -2 -19 -3 -25 -2 -14
-145 -155 -157 -155 -6 0 -8 4 -5 9 4 5 8 30 10 56 4 33 1 48 -9 51 -9 4 -12
18 -10 41 3 33 26 66 84 121 13 12 22 24 19 27 -3 3 -23 -14 -45 -38 -39 -42
-40 -42 -50 -20 -6 12 -8 25 -5 28 11 11 10 35 -1 28 -6 -4 -8 0 -5 9 4 8 2
21 -2 28 -13 22 -43 -8 -35 -34 16 -52 6 -125 -28 -194 -15 -32 -57 -52 -109
-53 -40 -1 -41 -2 -13 -9 28 -7 29 -11 6 -14 -5 0 -12 -4 -15 -7 -4 -3 14 -5
38 -3 51 4 62 -5 41 -32 -15 -18 -15 -18 -8 1 8 25 0 18 -17 -14 -7 -15 -8
-21 -1 -17 7 5 8 1 3 -11 -46 -103 -68 -143 -77 -140 -5 2 -29 28 -53 58 -24
30 -53 65 -64 79 -34 39 -162 184 -168 190 -10 9 -75 86 -115 135 -22 27 -81
95 -130 150 -100 110 -129 149 -138 183 -3 15 -1 22 10 22 8 0 12 -4 9 -9 -3
-4 6 -13 19 -19 15 -7 25 -8 25 -2 0 6 -5 10 -11 10 -5 0 -8 4 -5 9 3 5 -1 12
-10 15 -8 3 -13 10 -9 15 3 6 -3 14 -12 20 -10 6 -14 11 -9 11 5 0 2 8 -6 18
-8 9 -23 38 -33 65 -10 26 -21 47 -24 47 -4 0 -7 8 -8 18 -1 18 -6 39 -28 136
-8 34 -15 77 -15 96 l0 36 43 -4 c29 -2 38 0 28 6 -8 6 -19 8 -25 6 -7 -3 -20
2 -31 11 -20 15 -20 15 0 11 11 -1 36 -6 55 -10z m130 -67 l25 -34 -32 23
c-41 29 -63 60 -56 79 4 11 10 8 22 -11 9 -13 27 -39 41 -57z m1027 39 c-3 -8
-6 -5 -6 6 -1 11 2 17 5 13 3 -3 4 -12 1 -19z m-339 -21 c-7 -14 -13 -17 -16
-9 -6 19 6 44 18 37 7 -4 6 -14 -2 -28z m843 16 c12 -16 12 -17 -2 -6 -9 7
-20 9 -24 5 -5 -4 -5 -1 -1 6 9 16 11 15 27 -5z m-241 -13 c0 -5 -2 -10 -4
-10 -3 0 -8 5 -11 10 -3 6 -1 10 4 10 6 0 11 -4 11 -10z m-303 -15 c0 -8 -4
-12 -9 -9 -5 3 -6 10 -3 15 9 13 12 11 12 -6z m40 -7 c-3 -8 -6 -5 -6 6 -1 11
2 17 5 13 3 -3 4 -12 1 -19z m238 12 c3 -6 -1 -7 -9 -4 -18 7 -21 14 -7 14 6
0 13 -4 16 -10z m-681 -9 c3 -5 -7 -14 -24 -19 -21 -8 -32 -8 -36 0 -4 7 -2 8
4 4 7 -4 12 -3 12 3 0 5 8 12 18 14 9 3 18 5 19 6 1 0 4 -3 7 -8z m423 -13
c-3 -8 -6 -5 -6 6 -1 11 2 17 5 13 3 -3 4 -12 1 -19z m-1023 -38 c-1 -14 -2
-28 -3 -32 0 -5 -13 -8 -28 -7 -26 1 -26 1 -5 7 21 7 22 8 7 30 -10 13 -27 22
-41 22 -14 0 -23 4 -20 8 3 5 24 6 48 3 38 -5 43 -9 42 -31z m896 20 c0 -11
-4 -20 -9 -20 -5 0 -7 9 -4 20 3 11 7 20 9 20 2 0 4 -9 4 -20z m90 7 c0 -8 -7
-14 -15 -14 -25 0 -17 17 13 26 1 1 2 -5 2 -12z m-334 -12 c-11 -8 -25 -15
-30 -15 -6 1 0 7 14 15 32 19 40 18 16 0z m461 -47 c-2 -13 -4 -3 -4 22 0 25
2 35 4 23 2 -13 2 -33 0 -45z m417 47 c-4 -8 -8 -15 -10 -15 -2 0 -4 7 -4 15
0 8 4 15 10 15 5 0 7 -7 4 -15z m-507 -17 c-3 -8 -6 -5 -6 6 -1 11 2 17 5 13
3 -3 4 -12 1 -19z m486 2 c3 -11 2 -18 -3 -15 -4 3 -20 -28 -34 -68 -15 -39
-45 -105 -67 -145 -22 -41 -38 -80 -35 -88 3 -7 1 -13 -4 -11 -8 2 -200 -365
-200 -382 0 -3 36 58 79 137 43 79 81 138 84 130 2 -7 -9 -38 -26 -68 -16 -30
-25 -50 -20 -45 17 16 78 129 66 122 -7 -4 -14 -3 -18 3 -8 13 14 52 26 45 5
-4 9 -2 9 2 0 5 7 18 16 29 15 18 15 18 5 -3 -14 -27 -14 -36 -1 -28 6 3 10 1
10 -5 0 -7 -7 -10 -15 -6 -8 3 -15 1 -15 -3 0 -5 5 -11 11 -13 8 -3 -1 -33
-25 -89 -20 -47 -36 -89 -36 -94 0 -6 14 22 31 60 17 39 35 74 39 79 10 10
-10 -50 -39 -118 -12 -27 -19 -51 -16 -54 3 -3 5 1 5 8 0 7 2 11 5 8 4 -3 3
-18 -1 -34 -6 -24 -8 -26 -14 -9 -6 18 -7 18 -12 -3 -4 -14 -2 -20 4 -16 7 5
9 -3 5 -22 -6 -26 -5 -26 10 6 8 19 17 52 18 73 3 46 15 62 15 20 0 -72 -91
-288 -147 -349 -10 -11 -14 -14 -9 -7 8 12 1 33 -7 22 -2 -2 -15 -19 -30 -37
-35 -43 -35 -63 0 -31 24 21 23 19 -6 -18 -18 -24 -38 -46 -44 -50 -7 -3 -4 3
6 14 19 21 23 38 7 28 -16 -10 -12 7 11 45 l21 35 -25 -23 -25 -23 11 40 c6
22 14 38 18 35 4 -2 7 12 6 31 -1 21 -4 30 -9 22 -14 -23 -9 16 7 46 10 21 11
27 2 25 -6 -3 -21 -38 -31 -79 -11 -41 -24 -77 -29 -80 -5 -3 -7 -8 -6 -10 2
-2 -5 -29 -15 -59 -16 -49 -124 -221 -148 -236 -15 -9 -1 95 23 174 25 80 145
367 169 402 25 37 201 343 247 430 22 41 57 113 78 160 34 76 52 110 60 110 1
0 5 -9 8 -20z m-1436 -12 c-3 -8 -6 -5 -6 6 -1 11 2 17 5 13 3 -3 4 -12 1 -19z
m1517 14 c3 -5 -1 -9 -9 -9 -8 0 -12 4 -9 9 3 4 7 8 9 8 2 0 6 -4 9 -8z
m-1364 -52 c0 -29 -14 -24 -27 10 -10 28 -10 29 8 20 10 -6 19 -20 19 -30z
m1128 -8 c-11 -63 -38 -149 -34 -107 6 51 33 155 39 155 2 0 0 -22 -5 -48z
m492 44 c0 -2 -9 -6 -20 -9 -11 -3 -18 -1 -14 4 5 9 34 13 34 5z m-1740 -10
c0 -2 -8 -10 -17 -17 -16 -13 -17 -12 -4 4 13 16 21 21 21 13z m1765 -6 c-3
-5 -11 -10 -16 -10 -6 0 -7 5 -4 10 3 6 11 10 16 10 6 0 7 -4 4 -10z m-1711
-37 c-28 -21 -35 -15 -11 10 12 12 24 18 26 13 2 -5 -4 -15 -15 -23z m1422 -5
c-9 -12 -16 -19 -16 -15 0 11 24 47 28 42 2 -2 -3 -14 -12 -27z m324 28 c0 -2
-7 -7 -16 -10 -8 -3 -12 -2 -9 4 6 10 25 14 25 6z m-1658 -38 c-8 -8 -9 -4 -5
13 4 13 8 18 11 10 2 -7 -1 -18 -6 -23z m388 23 c0 -6 -4 -12 -8 -15 -5 -3 -9
1 -9 9 0 8 4 15 9 15 4 0 8 -4 8 -9z m80 5 c0 -2 -7 -7 -16 -10 -8 -3 -12 -2
-9 4 6 10 25 14 25 6z m821 -29 c-10 -9 -11 -8 -5 6 3 10 9 15 12 12 3 -3 0
-11 -7 -18z m-791 3 c-8 -5 -19 -10 -25 -10 -5 0 -3 5 5 10 8 5 20 10 25 10 6
0 3 -5 -5 -10z m5 -20 c-3 -5 -12 -10 -18 -10 -7 0 -6 4 3 10 19 12 23 12 15
0z m220 -57 c3 -13 11 -23 19 -23 32 0 40 -32 43 -154 1 -66 4 -130 7 -141 2
-11 5 -28 5 -37 1 -10 9 -16 21 -15 18 1 20 7 16 77 -1 41 0 91 5 110 5 23 6
8 4 -45 l-4 -80 13 75 c8 53 9 79 2 89 -8 11 -8 13 2 7 8 -5 12 -1 13 11 1 31
10 77 16 83 3 3 3 -12 0 -32 -3 -21 -1 -38 4 -38 5 0 9 13 9 29 0 17 4 32 8
35 7 4 9 -42 2 -54 -1 -3 -3 -18 -4 -35 -4 -56 -17 -95 -29 -88 -9 5 -9 3 -1
-8 7 -8 8 -24 3 -39 -9 -25 -9 -25 -5 2 2 16 -1 25 -6 22 -6 -4 -8 -19 -6 -35
3 -16 1 -29 -3 -29 -4 0 -11 -28 -15 -62 -7 -57 -8 -60 -14 -28 -5 29 -8 19
-18 -55 -7 -49 -13 -102 -14 -117 -4 -44 -14 -33 -28 30 -7 31 -17 63 -22 69
-6 7 -8 19 -5 28 4 8 2 17 -4 20 -5 4 -7 10 -4 15 3 5 1 11 -4 14 -10 7 -19
51 -26 128 -3 29 -10 64 -15 78 -9 23 -39 144 -54 215 -5 22 -4 26 4 15 5 -8
10 -26 11 -40 1 -14 5 -6 9 20 6 38 7 40 10 15 l2 -30 8 30 8 30 1 -27 c2 -43
21 -44 22 -1 1 25 3 30 6 13 2 -14 6 -35 8 -47z m516 26 c-12 -19 -21 -30 -21
-26 0 12 33 67 38 63 1 -2 -6 -19 -17 -37z m-786 13 c-3 -3 -11 0 -18 7 -9 10
-8 11 6 5 10 -3 15 -9 12 -12z m562 -14 c-3 -8 -6 -5 -6 6 -1 11 2 17 5 13 3
-3 4 -12 1 -19z m43 -8 c-6 -12 -14 -20 -17 -17 -2 3 1 14 8 26 7 11 15 18 17
16 2 -2 -2 -13 -8 -25z m-755 10 c-27 -12 -43 -12 -25 0 8 5 22 9 30 9 10 0 8
-3 -5 -9z m947 -30 c-9 -22 -20 -40 -25 -40 -4 0 2 18 13 40 26 52 33 52 12 0z
m282 25 c-4 -8 -11 -15 -16 -15 -6 0 -5 6 2 15 7 8 14 15 16 15 2 0 1 -7 -2
-15z m-1229 -15 c-3 -5 -14 -10 -23 -9 -14 0 -13 2 3 9 27 11 27 11 20 0z
m120 1 c-3 -5 4 -13 16 -16 11 -4 18 -9 16 -12 -9 -8 -48 18 -42 28 4 5 8 9
11 9 3 0 3 -4 -1 -9z m70 -14 c-11 -6 -21 -5 -28 3 -9 8 -7 9 7 4 13 -5 17 -4
12 4 -5 8 -2 10 10 5 15 -6 15 -7 -1 -16z m55 13 c10 -6 11 -10 3 -10 -7 0
-12 -5 -10 -11 1 -6 -5 -14 -13 -16 -13 -4 -13 -3 0 6 13 10 13 11 0 12 -12 0
-12 2 -1 6 11 5 11 7 0 14 -8 5 -9 9 -4 9 6 0 17 -5 25 -10z m-290 -16 c0 -2
-9 -4 -21 -4 -11 0 -18 4 -14 10 5 8 35 3 35 -6z m1257 -59 c-23 -41 -43 -71
-45 -66 -2 5 7 24 20 44 13 19 31 49 40 66 9 17 19 31 22 31 2 0 -14 -34 -37
-75z m-1147 40 c0 -2 -6 -5 -13 -8 -8 -3 -14 1 -14 8 0 7 6 11 14 8 7 -3 13
-6 13 -8z m48 6 c11 -7 10 -9 -3 -14 -9 -4 -14 -3 -10 2 3 5 -1 12 -7 14 -7 3
-8 6 -3 6 6 0 16 -3 23 -8z m602 -26 c0 -5 -5 -3 -10 5 -5 8 -10 20 -10 25 0
6 5 3 10 -5 5 -8 10 -19 10 -25z m-538 18 c-6 -2 -10 -8 -7 -13 3 -4 -5 -6
-17 -2 -21 5 -21 6 -2 13 10 4 24 8 29 8 6 -1 4 -3 -3 -6z m107 -2 c10 -7 7
-9 -12 -8 -14 1 -23 5 -20 10 6 9 15 9 32 -2z m-1029 -60 c0 -32 -6 -24 -14
19 -4 25 -3 31 4 20 5 -8 10 -26 10 -39z m972 42 c-6 -2 -10 -9 -7 -14 4 -5
-2 -6 -11 -2 -12 4 -15 3 -10 -5 5 -8 2 -10 -8 -6 -9 3 -16 2 -16 -4 0 -18
-29 -21 -67 -8 -37 13 -37 13 -11 19 14 4 34 9 45 12 10 3 5 -1 -11 -8 -27
-13 -27 -14 -7 -20 11 -3 21 -2 21 3 0 7 67 38 85 38 6 0 4 -2 -3 -5z m643
-33 c-14 -22 -25 -44 -25 -49 0 -5 -4 -13 -10 -16 -6 -4 -7 1 -3 12 9 24 52
93 58 93 3 0 -6 -18 -20 -40z m334 -56 c-43 -82 -62 -117 -119 -219 -62 -111
-333 -507 -387 -565 -29 -32 -53 -61 -53 -66 0 -4 7 1 16 12 8 10 12 12 8 4
-13 -27 -47 -60 -56 -54 -5 3 -7 2 -6 -3 4 -10 -22 -44 -47 -63 -11 -8 -7 1
10 20 l30 35 -38 -34 c-35 -33 -51 -61 -25 -45 7 4 8 3 4 -5 -4 -6 -11 -9 -16
-6 -5 3 -44 -31 -87 -76 -43 -44 -91 -90 -106 -101 l-29 -21 -21 21 -21 21 54
63 c30 35 100 110 157 168 119 122 138 144 200 225 45 60 94 149 107 195 38
134 111 347 122 356 18 14 36 63 28 76 -5 7 -2 8 5 4 7 -5 10 -15 7 -25 -5
-14 -4 -13 8 2 21 26 23 21 18 -38 -6 -72 6 -145 24 -152 21 -8 25 -1 35 52
10 55 37 115 51 115 7 0 7 -4 0 -12 -5 -7 -13 -24 -16 -38 -4 -14 13 8 37 48
49 82 85 122 45 52 -55 -97 -139 -260 -135 -260 6 0 102 157 118 192 5 13 15
32 22 43 7 11 30 53 51 93 21 40 41 71 43 69 2 -3 -15 -40 -38 -83z m-949 62
c0 -2 -7 -7 -16 -10 -8 -3 -12 -2 -9 4 6 10 25 14 25 6z m1245 -5 c-16 -4 -41
-13 -54 -20 -16 -9 -21 -10 -16 -1 10 16 45 29 75 28 22 0 22 -1 -5 -7z
m-1361 -32 c3 -3 0 -6 -6 -7 -7 0 -22 -3 -34 -5 -11 -3 -27 -1 -35 5 -10 7 -7
8 13 5 15 -2 25 0 22 4 -3 5 -11 9 -19 9 -8 0 -16 4 -19 9 -6 9 68 -10 78 -20z
m413 -1 c-3 -7 -5 -2 -5 12 0 14 2 19 5 13 2 -7 2 -19 0 -25z m-507 6 c0 -2
-9 -4 -20 -4 -11 0 -20 4 -20 9 0 5 9 7 20 4 11 -3 20 -7 20 -9z m1430 2 c0
-3 -15 -14 -32 -26 l-33 -22 28 26 c27 25 37 31 37 22z m-1250 -16 c8 -5 11
-10 5 -10 -5 0 -17 5 -25 10 -8 5 -10 10 -5 10 6 0 17 -5 25 -10z m517 -12
c-3 -8 -6 -5 -6 6 -1 11 2 17 5 13 3 -3 4 -12 1 -19z m-552 -10 c-9 -6 -19 -7
-22 -4 -4 3 -1 6 6 6 7 0 9 4 6 10 -4 6 1 7 11 3 15 -6 15 -7 -1 -15z m61 3
c-7 -11 49 -35 63 -26 6 3 11 4 11 1 0 -9 -72 -37 -78 -31 -3 3 -1 5 5 5 5 0
10 7 10 15 0 11 -7 14 -21 9 -17 -4 -18 -3 -6 5 13 10 13 11 0 11 -13 0 -13 1
0 10 19 12 23 12 16 1z m389 -2 c-4 -6 -11 -23 -16 -37 -7 -24 -8 -23 -4 8 4
43 3 40 16 40 5 0 7 -5 4 -11z m347 -19 c-2 -16 -6 -30 -8 -30 -2 0 -4 14 -4
30 0 17 4 30 8 30 5 0 7 -13 4 -30z m488 26 c0 -2 -8 -10 -17 -17 -16 -13 -17
-12 -4 4 13 16 21 21 21 13z m-1353 -12 c-3 -3 -12 -4 -19 -1 -8 3 -5 6 6 6
11 1 17 -2 13 -5z m904 -27 c-10 -9 -11 -8 -5 6 3 10 9 15 12 12 3 -3 0 -11
-7 -18z m15 -19 c-9 -12 -16 -19 -16 -15 0 11 24 47 28 42 2 -2 -3 -14 -12
-27z m-811 4 c-3 -3 -11 0 -18 7 -9 10 -8 11 6 5 10 -3 15 -9 12 -12z m-60
-20 c-3 -3 -11 0 -18 7 -9 10 -8 11 6 5 10 -3 15 -9 12 -12z m55 -12 c8 -5 11
-10 5 -10 -5 0 -17 5 -25 10 -8 5 -10 10 -5 10 6 0 17 -5 25 -10z m45 -15
c-20 -10 -24 -14 -12 -15 10 0 28 5 40 11 12 7 19 8 15 4 -4 -4 0 -13 9 -20
13 -9 13 -14 3 -20 -8 -5 -11 -4 -7 1 3 6 -9 10 -28 10 -19 0 -30 -3 -24 -7
17 -10 -34 -19 -64 -11 -32 8 -39 26 -11 29 18 3 18 2 -1 -6 -13 -7 -15 -10
-5 -10 27 -1 60 11 54 20 -3 5 5 13 18 18 36 15 47 11 13 -4z m1121 -4 c0 -12
-5 -17 -15 -13 -10 4 -13 1 -8 -11 3 -9 1 -19 -5 -23 -7 -4 -8 -3 -4 4 4 7 3
12 -2 12 -11 0 -26 -30 -23 -43 1 -5 -2 -6 -7 -3 -11 6 -85 -67 -77 -77 3 -4
2 -5 -2 -2 -11 8 -63 -47 -56 -59 3 -6 2 -8 -2 -3 -5 4 -20 -3 -34 -15 l-26
-23 25 30 c20 24 232 245 235 245 0 0 1 -8 1 -19z m-375 -22 c-5 -13 -10 -19
-10 -12 -1 15 10 45 15 40 3 -2 0 -15 -5 -28z m-901 1 c0 -5 -2 -10 -4 -10 -3
0 -8 5 -11 10 -3 6 -1 10 4 10 6 0 11 -4 11 -10z m37 -6 c-3 -3 -12 -4 -19 -1
-8 3 -5 6 6 6 11 1 17 -2 13 -5z m460 -36 c-3 -7 -5 -2 -5 12 0 14 2 19 5 13
2 -7 2 -19 0 -25z m-480 16 c-3 -3 -12 -4 -19 -1 -8 3 -5 6 6 6 11 1 17 -2 13
-5z m153 -5 c-11 -8 -8 -9 15 -5 22 5 26 4 15 -4 -12 -8 -13 -10 -1 -10 8 0
12 -2 9 -5 -2 -3 -19 0 -37 6 -24 9 -29 14 -19 20 19 13 36 11 18 -2z m1020 8
c0 -1 -32 -34 -71 -72 -45 -44 -65 -59 -53 -40 25 42 65 85 80 85 6 0 17 7 24
15 11 14 20 19 20 12z m-1060 -35 c0 -10 7 -12 28 -8 20 5 23 4 12 -4 -13 -9
-13 -10 0 -9 21 0 78 27 61 28 -8 1 -12 4 -9 7 10 9 49 -16 43 -27 -4 -5 -10
-7 -15 -4 -5 3 -41 -4 -80 -16 -39 -12 -74 -19 -77 -16 -3 3 12 9 33 13 31 6
34 8 19 14 -11 4 -44 11 -72 15 -72 10 -73 20 -2 21 45 0 59 -3 59 -14z m-180
4 c0 -2 -13 -6 -30 -8 -16 -3 -30 -1 -30 4 0 4 14 8 30 8 17 0 30 -2 30 -4z
m460 -16 c0 -11 -4 -20 -9 -20 -5 0 -7 9 -4 20 3 11 7 20 9 20 2 0 4 -9 4 -20z
m-403 4 c-3 -3 -12 -4 -19 -1 -8 3 -5 6 6 6 11 1 17 -2 13 -5z m1383 -24 c-27
-38 -36 -43 -36 -20 0 10 3 17 7 15 3 -3 14 4 24 15 27 29 29 24 5 -10z
m-1295 0 c-11 -5 -29 -8 -40 -8 -16 0 -15 2 5 8 34 11 60 11 35 0z m380 -50
c3 -5 1 -10 -4 -10 -6 0 -11 5 -11 10 0 6 2 10 4 10 3 0 8 -4 11 -10z m824
-27 c-14 -16 -45 -54 -68 -85 -24 -32 -45 -58 -48 -58 -7 0 79 119 105 145 34
34 42 32 11 -2z m165 -8 c3 -8 1 -15 -4 -15 -6 0 -10 7 -10 15 0 8 2 15 4 15
2 0 6 -7 10 -15z m-1057 -37 c-3 -7 -5 -2 -5 12 0 14 2 19 5 13 2 -7 2 -19 0
-25z m543 28 c0 -2 -8 -10 -17 -17 -16 -13 -17 -12 -4 4 13 16 21 21 21 13z
m461 -33 c-12 -20 -14 -14 -5 12 4 9 9 14 11 11 3 -2 0 -13 -6 -23z m-116 -3
c-3 -5 -11 -10 -16 -10 -6 0 -7 5 -4 10 3 6 11 10 16 10 6 0 7 -4 4 -10z m3
-40 c-12 -16 -25 -30 -28 -30 -4 0 -12 -10 -18 -22 -6 -13 -11 -17 -11 -11 -1
12 66 93 75 93 3 0 -5 -13 -18 -30z m92 -39 c-12 -17 -25 -31 -30 -31 -5 0
-16 -12 -24 -27 -8 -16 -15 -23 -16 -17 0 14 82 116 88 110 2 -3 -6 -19 -18
-35z m17 -26 c-7 -14 -18 -25 -26 -25 -10 0 -7 8 9 25 29 31 31 31 17 0z
m-561 -7 c-9 -13 -25 -40 -36 -60 -11 -20 -25 -40 -31 -44 -6 -3 -3 6 7 22 36
59 67 104 72 104 2 0 -3 -10 -12 -22z m-1891 2 c3 -5 1 -10 -4 -10 -6 0 -11 5
-11 10 0 6 2 10 4 10 3 0 8 -4 11 -10z m2411 -45 c-3 -19 -13 -28 -32 -31 -12
-2 -10 4 7 22 26 28 28 29 25 9z m-2409 -37 c-3 -7 -5 -2 -5 12 0 14 2 19 5
13 2 -7 2 -19 0 -25z m405 -33 c10 -19 10 -19 -8 -3 -10 9 -23 16 -28 15 -5
-1 -10 12 -12 28 l-3 30 20 -25 c11 -14 25 -34 31 -45z m2027 43 c-17 -33 -58
-72 -66 -64 -5 5 64 84 75 86 1 0 -3 -10 -9 -22z m-233 -36 c-22 -22 -26 -23
-20 -7 8 22 35 48 43 40 3 -3 -7 -18 -23 -33z m144 35 c0 -2 -10 -12 -22 -23
l-23 -19 19 23 c18 21 26 27 26 19z m-108 -34 c-6 -10 -20 -27 -33 -38 -24
-21 -20 -10 14 38 21 30 35 31 19 0z m-362 -12 c-5 -11 -15 -23 -22 -27 -7 -5
-8 -2 -3 7 21 37 44 55 25 20z m51 0 c-7 -5 -13 -12 -14 -17 -1 -5 -15 -16
-32 -24 -16 -9 -43 -24 -60 -34 l-30 -18 30 23 c87 69 110 86 115 82 2 -2 -1
-8 -9 -12z m453 -61 c-68 -71 -95 -93 -52 -42 49 59 102 112 110 112 4 0 -22
-31 -58 -70z m-61 36 c3 -8 -1 -20 -9 -27 -12 -10 -15 -10 -12 2 2 8 -3 13
-12 11 -10 -1 -9 2 4 13 24 18 23 18 29 1z m-68 -6 c3 -5 -1 -10 -10 -10 -9 0
-13 5 -10 10 3 6 8 10 10 10 2 0 7 -4 10 -10z m-900 -50 c-16 -16 -26 -33 -22
-36 3 -4 -2 -18 -13 -32 -11 -13 -18 -28 -15 -32 3 -4 -3 -14 -12 -21 -14 -12
-16 -12 -8 1 5 8 -7 3 -26 -11 -41 -31 -74 -45 -62 -26 4 6 8 15 8 19 0 3 4
10 9 15 5 5 6 2 1 -6 -5 -9 -3 -12 6 -9 8 3 14 9 14 15 0 12 138 162 144 157
3 -2 -8 -18 -24 -34z m1085 31 c0 -5 -7 -11 -14 -14 -10 -4 -13 -1 -9 9 6 15
23 19 23 5z m-200 -21 c0 -5 -5 -10 -11 -10 -5 0 -7 5 -4 10 3 6 8 10 11 10 2
0 4 -4 4 -10z m86 -2 c-3 -19 -16 -38 -27 -38 -5 0 -2 11 7 25 18 28 23 31 20
13z m-36 -2 c0 -3 -4 -8 -10 -11 -5 -3 -10 -1 -10 4 0 6 5 11 10 11 6 0 10 -2
10 -4z m139 -42 c-7 -8 -7 -14 1 -19 12 -8 -5 -35 -22 -35 -6 0 -5 7 2 15 10
13 11 18 1 28 -7 7 -12 8 -11 2 4 -19 0 -26 -11 -20 -7 5 -5 13 5 24 19 21 52
25 35 5z m-239 -45 c-17 -16 -36 -29 -43 -29 -6 0 -1 7 11 16 13 9 21 22 18
29 -7 18 2 24 25 18 19 -5 18 -8 -11 -34z m274 -3 c-6 -16 -24 -23 -24 -8 0
10 22 33 27 28 2 -2 1 -11 -3 -20z m113 9 c0 -8 -4 -12 -9 -9 -5 3 -6 10 -3
15 9 13 12 11 12 -6z m-357 -20 c-7 -9 -15 -13 -18 -10 -3 2 1 11 8 20 7 9 15
13 18 10 3 -2 -1 -11 -8 -20z m150 5 c-6 -11 -9 -24 -6 -29 3 -4 -1 -8 -8 -8
-17 0 -15 19 3 41 19 22 24 20 11 -4z m-446 -27 c-4 -16 -15 -37 -26 -48 -17
-18 -16 -14 4 27 26 55 31 59 22 21z m656 -17 l-23 -21 19 33 c10 18 20 28 23
21 2 -6 -7 -21 -19 -33z m-1394 9 c-1 -14 -8 -30 -15 -37 -11 -11 -12 -10 -5
2 5 8 9 23 10 33 3 37 12 39 10 2z m1033 -2 c-8 -10 -24 -29 -36 -42 -28 -29
-22 -42 7 -16 11 10 20 13 20 7 0 -6 -12 -18 -27 -26 -16 -8 -24 -15 -19 -16
5 0 3 -7 -4 -15 -7 -8 -17 -12 -22 -9 -5 3 -2 14 8 25 18 20 6 27 -13 8 -8 -8
-13 -8 -17 0 -4 6 -1 11 8 11 8 0 33 20 57 45 44 46 63 59 38 28z m-919 -37
c-12 -20 -26 -36 -32 -36 -6 0 -5 7 3 17 8 10 -6 1 -31 -18 -25 -20 -73 -55
-107 -78 -35 -23 -63 -44 -63 -48 0 -3 10 1 23 9 12 8 35 23 50 33 15 10 30
16 33 13 2 -3 -14 -17 -36 -32 -22 -15 -38 -31 -35 -36 4 -6 0 -10 -7 -10 -8
0 -6 -5 5 -11 19 -11 53 8 91 50 10 11 23 18 27 15 5 -3 9 0 9 5 0 15 -11 14
-31 -5 -9 -8 -20 -11 -23 -6 -3 5 16 24 42 43 75 54 75 54 67 28 -9 -29 -64
-88 -124 -135 l-44 -34 34 6 c34 5 34 5 9 -10 -27 -15 -50 -6 -50 20 0 8 -6
14 -13 14 -14 0 -47 35 -47 50 0 5 14 17 31 25 17 9 29 19 26 21 -2 3 -20 -5
-40 -16 -22 -13 -38 -17 -42 -11 -3 6 7 14 22 17 26 7 133 78 196 130 15 13
34 21 41 18 8 -3 17 0 21 6 4 6 9 9 12 6 3 -3 -5 -21 -17 -40z m172 7 c-11
-16 -40 -46 -64 -68 -46 -43 -26 -15 41 58 41 44 50 48 23 10z m-321 4 c-6 -8
-8 -16 -5 -19 3 -3 1 -9 -4 -12 -6 -3 -9 0 -8 6 2 16 15 38 23 38 3 0 0 -6 -6
-13z m999 -7 c-14 -10 -27 -16 -30 -13 -6 6 30 33 44 33 6 0 0 -9 -14 -20z
m164 5 c-4 -8 -11 -15 -16 -15 -6 0 -5 6 2 15 7 8 14 15 16 15 2 0 1 -7 -2
-15z m36 -10 c-7 -9 -15 -13 -17 -11 -7 7 7 26 19 26 6 0 6 -6 -2 -15z m255 5
c3 -5 1 -10 -4 -10 -6 0 -11 5 -11 10 0 6 2 10 4 10 3 0 8 -4 11 -10z m-193
-32 c-7 -7 -12 -8 -12 -2 0 14 12 26 19 19 2 -3 -1 -11 -7 -17z m-1152 -14 c0
-9 -64 -64 -75 -64 -5 1 8 16 30 35 42 36 45 38 45 29z m-163 -19 c4 -12 -47
-45 -69 -45 -7 0 5 11 26 24 34 20 37 25 20 29 -18 6 -18 6 0 4 11 -1 21 -7
23 -12z m1344 -18 c-10 -9 -11 -8 -5 6 3 10 9 15 12 12 3 -3 0 -11 -7 -18z
m-249 1 c-19 -19 -14 -32 6 -17 16 13 16 13 2 -6 -20 -26 -53 -54 -64 -55 -5
0 -2 8 7 18 10 10 17 26 17 35 0 9 8 21 18 26 23 14 29 14 14 -1z m-77 -28
c-10 -11 -22 -20 -28 -20 -5 0 1 9 14 20 31 25 37 25 14 0z m-1954 -92 c46
-51 78 -89 72 -84 -58 35 75 -91 147 -139 30 -21 64 -47 75 -58 l20 -20 -30
20 c-43 28 -55 35 -55 29 0 -2 16 -14 35 -26 19 -12 32 -26 29 -32 -4 -6 1 -6
13 1 23 12 37 3 23 -14 -7 -8 -6 -12 3 -12 20 0 67 -34 61 -44 -3 -5 1 -6 9
-3 8 3 23 -6 34 -20 11 -14 23 -23 27 -21 3 3 4 2 1 -1 -2 -4 6 -15 18 -26 19
-16 -18 6 -180 108 -13 8 -25 14 -29 13 -9 -1 -33 35 -28 43 3 4 -1 5 -9 2
-12 -4 -42 20 -42 35 1 9 -55 54 -60 49 -3 -3 12 -17 32 -31 21 -15 34 -27 30
-27 -5 0 -23 11 -41 25 -18 14 -36 25 -40 25 -8 0 -67 66 -67 74 1 4 -8 15
-20 27 -11 11 -18 27 -15 34 2 7 -3 19 -12 27 -16 12 -16 11 -2 -7 14 -18 14
-19 -2 -6 -10 7 -32 36 -49 65 l-31 51 48 -45 c47 -44 33 -22 -30 48 -17 17
-28 32 -25 32 3 0 43 -41 90 -92z m159 62 c6 -11 8 -20 6 -20 -3 0 -10 9 -16
20 -6 11 -8 20 -6 20 3 0 10 -9 16 -20z m2284 -15 c-4 -17 -10 -23 -16 -17 -6
6 -5 17 3 30 17 27 22 22 13 -13z m-1436 -3 c-10 -2 -18 -7 -18 -12 0 -5 -9
-14 -20 -20 -16 -8 -20 -8 -18 2 4 19 50 48 62 40 7 -4 4 -8 -6 -10z m67 -22
c-21 -22 -41 -37 -44 -35 -6 7 60 75 73 75 6 0 -7 -18 -29 -40z m940 0 c-3 -5
-13 -10 -21 -10 -8 0 -12 5 -9 10 3 6 13 10 21 10 8 0 12 -4 9 -10z m22 -12
c-2 -7 -24 -23 -48 -36 l-44 -23 29 23 c16 13 37 30 45 39 18 18 26 16 18 -3z
m418 -8 c-5 -28 -15 -41 -26 -35 -5 4 -2 17 7 31 20 29 24 30 19 4z m-1375
-15 c-7 -9 -15 -13 -18 -10 -3 2 1 11 8 20 7 9 15 13 18 10 3 -2 -1 -11 -8
-20z m860 21 c0 -2 -7 -7 -16 -10 -8 -3 -12 -2 -9 4 6 10 25 14 25 6z m15 -26
c-3 -5 -14 -10 -23 -10 -15 0 -15 2 -2 10 20 13 33 13 25 0z m235 6 c0 -2 -8
-10 -17 -17 -16 -13 -17 -12 -4 4 13 16 21 21 21 13z m-150 -9 c0 -2 -24 -24
-52 -48 -50 -41 -52 -42 -24 -9 28 34 76 70 76 57z m190 -12 c0 -8 -4 -15 -10
-15 -5 0 -7 7 -4 15 4 8 8 15 10 15 2 0 4 -7 4 -15z m-1911 -65 c7 0 9 -5 6
-10 -4 -6 -11 -7 -17 -4 -7 4 -8 2 -4 -5 4 -6 11 -9 16 -6 4 3 21 -2 36 -11
27 -15 27 -15 4 -9 -45 11 -55 13 -62 14 -5 1 -19 25 -33 54 l-24 52 33 -37
c18 -21 39 -38 45 -38z m1291 57 c0 -7 -23 -35 -51 -62 -28 -28 -75 -80 -105
-117 -60 -74 -117 -112 -181 -122 -44 -6 -68 7 -30 18 17 4 19 8 9 15 -11 6
-10 10 3 15 9 3 25 6 36 6 19 0 83 36 110 62 8 7 29 24 47 37 23 16 30 26 22
31 -9 5 -9 9 -1 14 6 4 11 2 11 -5 0 -8 7 -5 20 6 11 10 17 22 13 28 -4 6 -1
7 8 2 11 -6 12 -5 2 6 -10 10 -16 10 -25 1 -9 -9 -9 -12 1 -12 7 0 9 -5 6 -11
-4 -6 -13 -8 -20 -5 -16 6 -38 -17 -27 -29 4 -5 1 -5 -7 0 -10 6 -12 4 -6 -5
5 -9 4 -11 -4 -6 -14 9 -43 -12 -36 -24 3 -5 0 -12 -6 -16 -8 -4 -9 -3 -5 4
11 19 -2 14 -47 -16 -59 -40 -71 -47 -64 -35 3 5 25 23 49 39 24 15 64 46 90
67 28 22 52 35 59 31 7 -4 9 -3 5 4 -9 15 74 91 102 92 12 0 22 -6 22 -13z
m850 -7 c0 -5 -5 -10 -11 -10 -5 0 -7 5 -4 10 3 6 8 10 11 10 2 0 4 -4 4 -10z
m-3130 -40 c0 -13 -1 -13 -10 0 -5 8 -10 22 -10 30 0 13 1 13 10 0 5 -8 10
-22 10 -30z m1687 23 c-9 -9 -20 -13 -24 -9 -4 4 -1 11 7 16 25 16 35 11 17
-7z m1138 -3 c-3 -5 -11 -10 -16 -10 -6 0 -7 5 -4 10 3 6 11 10 16 10 6 0 7
-4 4 -10z m-135 -6 c0 -8 -32 -33 -42 -34 -4 0 0 9 9 20 17 20 33 26 33 14z
m165 -4 c-3 -5 -11 -10 -16 -10 -6 0 -7 5 -4 10 3 6 11 10 16 10 6 0 7 -4 4
-10z m-1145 -9 c0 -5 -7 -11 -15 -15 -15 -5 -20 5 -8 17 9 10 23 9 23 -2z
m1102 -33 c-7 -7 -12 -8 -12 -2 0 14 12 26 19 19 2 -3 -1 -11 -7 -17z m310 0
c-7 -7 -12 -8 -12 -2 0 14 12 26 19 19 2 -3 -1 -11 -7 -17z m-3115 -10 c-3 -8
-6 -5 -6 6 -1 11 2 17 5 13 3 -3 4 -12 1 -19z m3126 -38 c-3 -12 -8 -19 -11
-16 -5 6 5 36 12 36 2 0 2 -9 -1 -20z m-478 -10 c-10 -11 -21 -18 -23 -15 -3
3 3 12 14 20 27 20 30 18 9 -5z m115 -10 c0 -5 -5 -10 -11 -10 -5 0 -7 5 -4
10 3 6 8 10 11 10 2 0 4 -4 4 -10z m-306 -62 c-4 -6 -10 -5 -15 3 -14 22 -10
33 6 19 8 -7 12 -17 9 -22z m316 28 c0 -2 -8 -10 -17 -17 -16 -13 -17 -12 -4
4 13 16 21 21 21 13z m35 -15 c-3 -6 -11 -11 -16 -11 -5 0 -4 6 3 14 14 16 24
13 13 -3z m-210 -21 c-21 -16 -42 -30 -48 -30 -5 0 7 14 28 30 21 17 42 30 48
30 5 0 -7 -13 -28 -30z m291 -22 c-11 -15 -16 -18 -16 -7 0 16 21 42 28 34 2
-2 -3 -14 -12 -27z m365 9 c-10 -9 -11 -8 -5 6 3 10 9 15 12 12 3 -3 0 -11 -7
-18z m-642 -4 c-20 -25 -39 -41 -74 -59 -36 -20 -34 -18 30 35 54 45 65 50 44
24z m156 8 c-11 -5 -29 -19 -40 -31 -11 -12 -28 -26 -38 -32 -17 -9 -17 -8 -3
14 8 13 16 27 18 33 2 5 10 8 20 7 9 -2 19 2 23 8 3 5 14 10 23 9 14 0 13 -2
-3 -8z m-5 -51 c-19 -16 -48 -36 -64 -46 -42 -25 -29 5 15 33 19 13 43 30 53
38 36 27 32 4 -4 -25z m83 -5 c-3 -9 -8 -14 -10 -11 -3 3 -2 9 2 15 9 16 15
13 8 -4z m-53 0 c0 -17 -31 -75 -39 -75 -6 0 -7 8 -4 17 5 14 1 13 -25 -6 -46
-33 -39 -12 10 31 40 35 58 45 58 33z m-380 -20 c-7 -9 -15 -13 -17 -11 -7 7
7 26 19 26 6 0 6 -6 -2 -15z m170 5 c0 -5 -13 -16 -30 -25 -24 -12 -28 -13
-24 -1 3 7 15 18 27 24 28 14 27 14 27 2z m-1165 -30 c13 -6 15 -9 5 -9 -8 0
-22 4 -30 9 -18 12 -2 12 25 0z m1407 -22 c-7 -7 -12 -8 -12 -2 0 14 12 26 19
19 2 -3 -1 -11 -7 -17z m-2878 -68 c4 -24 3 -29 -3 -15 -4 11 -11 36 -15 55
-4 24 -3 29 3 15 4 -11 11 -36 15 -55z m2556 66 c0 -2 -7 -7 -16 -10 -8 -3
-12 -2 -9 4 6 10 25 14 25 6z m175 -26 c-3 -5 -11 -10 -16 -10 -6 0 -7 5 -4
10 3 6 11 10 16 10 6 0 7 -4 4 -10z m17 -25 c-25 -24 -32 -35 -21 -35 9 0 31
13 48 29 17 16 31 25 31 21 0 -11 -82 -81 -88 -75 -2 2 -12 -5 -22 -17 -10
-13 -19 -17 -23 -11 -4 6 5 18 19 28 14 9 23 19 20 23 -3 3 -17 -5 -31 -18
-21 -19 -25 -21 -25 -7 0 9 5 17 10 17 6 0 20 10 33 23 12 12 25 22 28 22 3 0
13 8 23 18 10 9 22 17 27 17 5 0 -8 -16 -29 -35z m229 12 c-10 -9 -11 -8 -5 6
3 10 9 15 12 12 3 -3 0 -11 -7 -18z m-1404 7 c-3 -3 -12 -4 -19 -1 -8 3 -5 6
6 6 11 1 17 -2 13 -5z m953 -19 c0 -2 -10 -10 -22 -16 -21 -11 -22 -11 -9 4
13 16 31 23 31 12z m-2503 -27 c-3 -8 -6 -5 -6 6 -1 11 2 17 5 13 3 -3 4 -12
1 -19z m2523 18 c0 -2 -8 -10 -17 -17 -16 -13 -17 -12 -4 4 13 16 21 21 21 13z
m-1255 -26 c17 -11 35 -20 42 -20 25 0 215 -98 201 -104 -7 -3 1 -4 17 -1 26
5 27 4 11 -6 -25 -15 -98 -20 -89 -6 4 6 -5 8 -23 4 -35 -6 -143 38 -127 54 5
5 18 7 27 3 12 -5 14 -9 6 -14 -8 -5 -7 -9 5 -13 9 -4 13 -3 10 3 -9 14 9 12
55 -6 23 -9 44 -14 47 -10 4 3 -2 6 -13 7 -18 0 -18 1 1 9 l20 9 -20 2 c-11 1
-27 3 -35 4 -8 1 -23 3 -33 4 -11 0 -15 6 -11 13 4 7 3 8 -4 4 -16 -10 -83 23
-75 37 4 6 1 7 -6 2 -8 -4 -18 1 -27 14 -15 22 -41 30 -28 9 4 -7 3 -8 -5 -4
-13 9 -5 26 12 26 7 0 26 -9 42 -20z m431 5 c17 -13 16 -14 -13 -4 -34 11 -42
19 -20 19 7 0 22 -7 33 -15z m534 -14 c0 -5 -7 -12 -16 -15 -14 -5 -15 -4 -4
9 14 17 20 19 20 6z m535 -1 c-15 -24 -150 -118 -162 -113 -8 3 2 15 29 33 24
15 60 41 82 59 38 30 63 41 51 21z m-2745 -40 c0 -13 -1 -13 -10 0 -5 8 -10
22 -10 30 0 13 1 13 10 0 5 -8 10 -22 10 -30z m3090 36 c0 -2 -8 -10 -17 -17
-16 -13 -17 -12 -4 4 13 16 21 21 21 13z m-467 -43 c7 -6 -21 -32 -36 -33 -4
0 -3 9 3 20 11 21 22 25 33 13z m94 -11 c-10 -10 -14 -22 -10 -26 5 -4 1 -6
-7 -4 -8 2 -15 -4 -16 -12 0 -8 -2 -21 -2 -27 -1 -7 -8 -13 -16 -13 -19 0 -88
-67 -76 -75 5 -3 28 11 51 32 l43 38 -19 -32 c-18 -31 -39 -46 -84 -58 -16 -5
-21 -4 -17 4 14 23 -11 10 -40 -20 -16 -17 -52 -42 -81 -55 -29 -13 -56 -30
-60 -37 -25 -41 -168 -99 -250 -101 -71 -2 -71 1 -5 26 32 12 49 15 57 7 7 -7
4 -8 -9 -3 -15 6 -17 4 -11 -6 6 -10 4 -12 -11 -6 -12 5 -16 4 -9 -3 7 -6 32
-2 75 13 113 39 132 53 249 180 24 26 61 59 82 73 40 26 51 40 23 29 -9 -3
-12 -2 -9 5 4 6 13 8 21 5 8 -3 42 15 75 39 65 48 82 56 56 27z m-2740 -14
c-3 -8 -6 -5 -6 6 -1 11 2 17 5 13 3 -3 4 -12 1 -19z m2429 -10 c4 -7 4 -10
-1 -6 -4 4 -14 0 -22 -8 -9 -8 -18 -12 -21 -9 -3 3 3 12 14 20 23 18 21 18 30
3z m351 -12 c-3 -8 -16 -20 -28 -27 l-22 -11 23 31 c22 32 38 36 27 7z m-1162
4 c3 -6 -1 -7 -9 -4 -18 7 -21 14 -7 14 6 0 13 -4 16 -10z m-1577 -25 c-3 -3
-9 2 -12 12 -6 14 -5 15 5 6 7 -7 10 -15 7 -18z m2750 -8 c-15 -12 -42 -33
-60 -46 -27 -20 -30 -21 -13 -3 20 21 85 70 95 71 3 0 -7 -10 -22 -22z m-1223
-7 c-3 -5 -12 -10 -18 -10 -7 0 -6 4 3 10 19 12 23 12 15 0z m-1518 -22 c-3
-8 -6 -5 -6 6 -1 11 2 17 5 13 3 -3 4 -12 1 -19z m68 -100 c13 -40 3 -52 -15
-18 -6 11 -17 20 -24 20 -14 0 -32 67 -22 78 3 3 6 -4 6 -16 0 -11 4 -23 9
-27 9 -5 7 19 -4 70 -6 25 32 -57 50 -107z m1465 102 c-12 -8 -12 -10 -1 -10
8 0 12 -3 8 -6 -3 -3 -16 -2 -29 2 -22 7 -22 7 -3 15 28 11 43 10 25 -1z m60
6 c0 -2 -9 -6 -20 -9 -11 -3 -18 -1 -14 4 5 9 34 13 34 5z m15 -22 l-30 -14
28 5 c17 4 26 2 23 -4 -4 -5 19 -15 49 -22 30 -7 53 -14 50 -17 -2 -3 -43 5
-91 18 -84 23 -85 24 -57 36 39 17 64 16 28 -2z m92 -10 c-3 -3 -12 -4 -19 -1
-8 3 -5 6 6 6 11 1 17 -2 13 -5z m1061 -31 c-18 -15 -46 -38 -63 -52 l-30 -26
23 26 c12 14 22 29 22 35 0 5 15 16 33 25 48 24 52 22 15 -8z m162 23 c0 -2
-8 -10 -17 -17 -16 -13 -17 -12 -4 4 13 16 21 21 21 13z m-575 -27 c-10 -15
-25 -10 -19 6 4 8 10 12 15 9 5 -3 7 -10 4 -15z m-282 4 c-7 -2 -19 -2 -25 0
-7 3 -2 5 12 5 14 0 19 -2 13 -5z m747 3 c0 -2 -9 -6 -20 -9 -11 -3 -18 -1
-14 4 5 9 34 13 34 5z m-793 -12 c-3 -3 -12 -4 -19 -1 -8 3 -5 6 6 6 11 1 17
-2 13 -5z m120 -20 c-3 -3 -12 -4 -19 -1 -8 3 -5 6 6 6 11 1 17 -2 13 -5z
m523 2 c0 -9 -52 -58 -57 -53 -3 3 6 17 20 31 24 24 37 32 37 22z m-370 -11
c0 -5 -77 -55 -85 -55 -13 0 9 23 39 41 31 19 46 23 46 14z m50 1 c0 -2 -8
-10 -17 -17 -16 -13 -17 -12 -4 4 13 16 21 21 21 13z m249 1 c-2 -1 -15 -11
-29 -22 l-25 -20 19 23 c11 12 24 22 29 22 6 0 8 -1 6 -3z m-542 -13 c-3 -3
-12 -4 -19 -1 -8 3 -5 6 6 6 11 1 17 -2 13 -5z m83 -14 c0 -5 -7 -7 -15 -4 -8
4 -15 8 -15 10 0 2 7 4 15 4 8 0 15 -4 15 -10z m390 1 c0 -5 -12 -17 -27 -26
l-28 -18 24 27 c26 28 31 31 31 17z m210 2 c0 -10 -62 -73 -73 -73 -5 0 6 18
23 40 29 37 50 50 50 33z m-455 -28 c-39 -32 -55 -32 -18 0 15 13 33 24 38 24
6 0 -3 -11 -20 -24z m-178 8 c-9 -2 -15 -8 -12 -13 8 -12 -31 -23 -56 -15 -15
5 -19 4 -15 -4 4 -6 0 -11 -10 -11 -13 0 -14 3 -4 15 7 9 22 12 39 9 20 -4 30
-1 34 10 4 9 14 15 24 15 17 -1 17 -2 0 -6z m232 4 c-2 -1 -13 -9 -24 -17 -19
-14 -19 -14 -6 3 7 9 18 17 24 17 6 0 8 -1 6 -3z m79 -58 c-17 -17 -43 -38
-57 -47 -14 -8 -3 5 24 31 56 52 81 64 33 16z m-640 14 c-16 -2 -40 -2 -55 0
-16 2 -3 4 27 4 30 0 43 -2 28 -4z m320 -8 c-14 -8 -39 -15 -55 -16 -56 -3
-57 3 -3 16 74 17 90 17 58 0z m352 -18 c0 -2 -14 -16 -32 -33 l-32 -29 25 32
c20 27 39 41 39 30z m-670 -17 c20 -6 21 -8 5 -8 -11 0 -33 4 -50 8 -27 7 -27
8 -5 8 14 0 36 -4 50 -8z m950 7 c0 -2 -12 -14 -27 -28 l-28 -24 24 28 c23 25
31 32 31 24z m-250 -11 c0 -3 -15 -14 -32 -26 l-33 -22 30 26 c31 27 35 29 35
22z m-368 -22 c-23 -16 -123 -54 -142 -54 -18 0 -11 20 8 21 11 0 12 2 4 6 -7
3 -20 -1 -28 -8 -9 -7 -26 -13 -37 -13 -41 1 -107 16 -107 24 0 11 121 29 185
28 28 0 44 -3 38 -5 -7 -3 -13 -9 -13 -14 0 -5 21 0 48 11 58 23 74 25 44 4z
m83 -12 c-3 -3 -11 0 -18 7 -9 10 -8 11 6 5 10 -3 15 -9 12 -12z m-1460 -10
c-3 -3 -11 0 -18 7 -9 10 -8 11 6 5 10 -3 15 -9 12 -12z m1825 14 c0 -2 -7 -7
-16 -10 -8 -3 -12 -2 -9 4 6 10 25 14 25 6z m-275 -33 c-11 -7 -24 -13 -29
-13 -6 0 -4 5 4 11 10 7 11 9 2 7 -25 -7 -11 -23 18 -21 16 2 32 -2 36 -8 5
-8 -11 -10 -56 -6 -34 3 -65 8 -68 11 -9 10 66 36 84 29 13 -5 15 -3 9 7 -6 9
-4 11 5 5 10 -6 9 -11 -5 -22z m195 13 c0 -2 -7 -7 -16 -10 -8 -3 -12 -2 -9 4
6 10 25 14 25 6z m44 -27 c-4 -8 1 -9 17 -5 24 7 24 7 -1 -8 -27 -17 -55 -22
-30 -6 13 9 13 10 0 10 -13 0 -13 1 0 10 20 13 23 12 14 -1z m-84 -33 c0 -2
-7 -7 -16 -10 -8 -3 -12 -2 -9 4 6 10 25 14 25 6z m128 -1 c-3 -3 -34 -22 -69
-41 -35 -19 -53 -32 -39 -28 29 7 26 2 -9 -16 -15 -8 -21 -8 -17 -1 9 15 2 14
-41 -4 -20 -8 -55 -18 -77 -20 -23 -3 -90 -11 -149 -19 -59 -7 -110 -9 -113
-4 -3 4 3 8 13 9 50 3 102 8 143 14 123 17 161 25 189 40 17 8 31 13 31 10 0
-2 28 11 63 29 57 31 89 44 75 31z m-178 -25 c-8 -5 -19 -10 -25 -10 -5 0 -3
5 5 10 8 5 20 10 25 10 6 0 3 -5 -5 -10z m70 -4 c0 -2 -9 -6 -20 -9 -11 -3
-18 -1 -14 4 5 9 34 13 34 5z m-400 -16 c17 0 21 -3 12 -8 -16 -11 -70 -3 -79
11 -4 6 2 8 18 4 13 -4 35 -7 49 -7z m350 1 c0 -9 -72 -41 -93 -41 -6 0 -3 7
8 16 11 8 25 12 32 10 7 -3 13 -1 13 4 0 5 8 11 18 13 9 3 18 5 20 6 1 0 2 -3
2 -8z m116 -6 c-11 -8 -25 -15 -30 -15 -6 1 0 7 14 15 32 19 40 18 16 0z
m-308 -2 c-10 -2 -26 -2 -35 0 -10 3 -2 5 17 5 19 0 27 -2 18 -5z m-108 -53
c-31 -8 -186 -13 -179 -6 2 3 40 7 83 10 42 2 80 7 83 9 3 3 12 3 21 -1 14 -5
12 -7 -8 -12z m107 14 c-3 -3 -12 -4 -19 -1 -8 3 -5 6 6 6 11 1 17 -2 13 -5z
m193 -15 c-12 -8 -8 -9 15 -5 l30 5 -30 -14 c-24 -11 -26 -14 -10 -15 l20 -1
-20 -9 c-27 -12 -43 -12 -25 0 13 9 13 10 0 10 -13 0 -13 1 0 10 13 9 13 10 0
10 -13 0 -13 1 0 10 20 13 39 12 20 -1z m-220 -39 c0 -5 -4 -10 -10 -10 -5 0
-10 5 -10 10 0 6 5 10 10 10 6 0 10 -4 10 -10z m88 3 c-10 -2 -28 -2 -40 0
-13 2 -5 4 17 4 22 1 32 -1 23 -4z m89 1 c-3 -3 -12 -4 -19 -1 -8 3 -5 6 6 6
11 1 17 -2 13 -5z m-257 -14 c0 -5 -10 -10 -22 -10 -19 0 -20 2 -8 10 19 13
30 13 30 0z m35 0 c-3 -5 -12 -10 -18 -10 -7 0 -6 4 3 10 19 12 23 12 15 0z
m-1488 -32 c-3 -8 -6 -5 -6 6 -1 11 2 17 5 13 3 -3 4 -12 1 -19z m738 -108 c3
-5 1 -10 -4 -10 -6 0 -11 5 -11 10 0 6 2 10 4 10 3 0 8 -4 11 -10z m222 -62
c-3 -8 -6 -5 -6 6 -1 11 2 17 5 13 3 -3 4 -12 1 -19z m400 0 c-3 -8 -6 -5 -6
6 -1 11 2 17 5 13 3 -3 4 -12 1 -19z"/>
<path d="M2445 5050 c-3 -5 -1 -10 4 -10 6 0 11 5 11 10 0 6 -2 10 -4 10 -3 0
-8 -4 -11 -10z"/>
<path d="M3120 4742 c0 -20 35 -32 66 -22 l29 8 -35 1 c-20 1 -41 6 -48 13 -9
9 -12 9 -12 0z"/>
<path d="M2888 4313 c6 -2 18 -2 25 0 6 3 1 5 -13 5 -14 0 -19 -2 -12 -5z"/>
<path d="M2883 4083 c-7 -3 -13 -8 -13 -12 0 -8 46 -8 55 0 7 8 -26 17 -42 12z"/>
<path d="M1995 4020 c-29 -6 -95 -37 -95 -44 0 -2 18 0 39 4 l40 7 -21 -37
c-16 -27 -27 -36 -41 -32 -10 3 -14 8 -9 11 6 4 5 11 -3 18 -14 13 -16 11 -31
-49 -5 -22 -4 -22 10 -5 19 24 30 6 11 -19 -17 -22 -19 -38 -5 -29 14 9 13 -8
-2 -23 -9 -9 -9 -12 2 -12 7 0 42 29 77 65 38 39 72 66 85 66 76 5 95 4 116
-5 40 -17 23 -23 -59 -22 l-81 1 -35 -40 -34 -40 30 -8 c17 -4 31 -10 31 -12
0 -3 -11 -3 -25 1 -27 7 -29 -1 -15 -46 5 -17 8 -19 9 -7 1 9 8 17 16 17 8 0
15 7 15 16 0 11 6 14 23 9 18 -5 17 -3 -5 10 -27 15 -36 39 -20 49 5 3 15 -6
22 -19 20 -38 71 -34 104 8 21 26 28 29 36 17 6 -9 5 -17 -2 -21 -7 -4 -6 -8
2 -11 7 -2 -9 -11 -36 -20 -27 -9 -41 -17 -32 -17 9 -1 19 -7 21 -13 3 -8 6
-6 6 4 1 17 65 37 78 24 4 -3 -5 -6 -20 -6 -14 0 -29 -5 -33 -12 -4 -6 -3 -8
4 -4 6 3 13 2 17 -4 3 -5 11 -10 16 -10 6 0 7 5 4 10 -3 6 3 10 15 10 12 0 19
4 16 9 -3 5 2 8 12 7 10 0 16 6 16 17 -1 9 2 17 7 17 27 0 -8 -60 -34 -60 -7
0 -23 -9 -37 -20 -24 -19 -24 -20 -4 -20 12 0 40 14 62 30 23 17 44 30 46 30
2 0 2 -16 -1 -36 -4 -27 -2 -34 7 -29 19 12 6 98 -23 155 -14 27 -22 50 -17
50 11 0 34 40 26 47 -2 3 -18 -1 -34 -9 -24 -12 -33 -13 -53 -3 -20 11 -71 22
-169 39 -8 1 -28 -1 -45 -4z m93 -160 c6 0 18 7 26 16 14 13 16 13 16 1 0 -44
-29 -59 -70 -37 -16 8 -18 17 -10 50 0 3 7 -3 14 -12 7 -10 18 -18 24 -18z"/>
<path d="M2435 3900 c-19 -8 -19 -9 3 -9 12 -1 22 4 22 9 0 6 -1 10 -2 9 -2 0
-12 -4 -23 -9z"/>
<path d="M2300 3608 c0 -12 -8 -30 -17 -41 -17 -19 -17 -20 5 -8 15 8 22 21
22 41 0 17 -2 30 -5 30 -3 0 -5 -10 -5 -22z"/>
<path d="M1997 3529 c4 -13 8 -18 11 -10 2 7 -1 18 -6 23 -8 8 -9 4 -5 -13z"/>
<path d="M2020 3533 c0 -7 5 -15 11 -19 6 -3 9 -17 6 -30 -3 -15 0 -24 8 -24
8 0 11 8 8 23 -4 18 -3 19 6 7 6 -8 11 -10 11 -5 0 14 -20 43 -20 30 0 -5 -7
-1 -15 9 -8 11 -15 15 -15 9z"/>
<path d="M2186 3475 c-3 -9 -6 -22 -5 -28 0 -7 5 -1 10 12 5 13 8 26 5 28 -2
2 -6 -3 -10 -12z"/>
<path d="M2091 3430 c0 -23 19 -60 32 -60 2 0 7 7 10 14 4 10 1 13 -8 10 -9
-4 -17 5 -24 28 -8 28 -9 29 -10 8z"/>
<path d="M2165 3384 l-30 -26 35 23 c45 29 45 29 34 29 -5 0 -22 -12 -39 -26z"/>
<path d="M2166 3321 c-4 -7 -5 -15 -2 -18 9 -9 19 4 14 18 -4 11 -6 11 -12 0z"/>
<path d="M1760 3900 c-7 -16 -10 -36 -6 -45 11 -29 21 -15 22 30 0 25 0 45 -1
45 -2 0 -8 -13 -15 -30z"/>
<path d="M2210 2870 c0 -11 4 -20 9 -20 5 0 7 9 4 20 -3 11 -7 20 -9 20 -2 0
-4 -9 -4 -20z"/>
<path d="M2555 2400 c-3 -5 -1 -10 4 -10 6 0 11 5 11 10 0 6 -2 10 -4 10 -3 0
-8 -4 -11 -10z"/>
<path d="M2590 2399 c0 -5 5 -7 10 -4 6 3 10 8 10 11 0 2 -4 4 -10 4 -5 0 -10
-5 -10 -11z"/>
<path d="M2594 2352 c3 -6 -2 -13 -11 -15 -16 -4 -16 -5 -1 -6 21 -1 32 15 17
25 -7 4 -9 3 -5 -4z"/>
<path d="M2495 2253 c12 -31 10 -38 -6 -37 -9 1 -16 -5 -16 -12 0 -8 9 -14 20
-14 11 0 17 3 14 6 -9 10 41 46 53 39 6 -3 7 1 4 10 -5 12 -10 13 -20 4 -16
-13 -48 -4 -39 11 3 5 1 10 -5 10 -8 0 -9 -7 -5 -17z"/>
<path d="M2802 2195 c-7 -8 -9 -15 -5 -15 4 0 1 -5 -7 -10 -10 -7 -11 -10 -2
-10 7 0 15 7 18 15 4 8 18 15 33 16 23 0 24 1 6 9 -27 12 -28 11 -43 -5z"/>
<path d="M2886 2189 c3 -5 -1 -9 -8 -9 -9 0 -9 -3 2 -10 12 -8 10 -10 -10 -11
-14 -1 -18 -3 -9 -6 8 -2 26 1 40 6 21 9 22 10 4 11 -17 2 -16 3 5 9 l25 7
-27 6 c-15 3 -25 1 -22 -3z"/>
<path d="M2780 2060 c6 -11 13 -20 16 -20 2 0 0 9 -6 20 -6 11 -13 20 -16 20
-2 0 0 -9 6 -20z"/>
<path d="M2880 1972 c0 -18 -4 -41 -9 -51 -6 -10 -12 -30 -14 -46 -6 -46 -36
-50 -126 -20 -49 16 -86 22 -143 24 -15 1 -43 14 -61 31 -41 36 -72 41 -34 6
52 -48 70 -56 128 -56 31 0 87 -9 124 -21 92 -28 118 -18 136 54 16 67 17 83
7 99 -5 8 -8 1 -8 -20z"/>
<path d="M2633 1778 c-6 -7 -16 -24 -23 -38 -13 -24 -12 -25 7 -7 11 9 22 14
25 11 3 -3 9 0 14 7 4 8 3 10 -4 5 -16 -9 -15 7 0 22 8 8 8 12 1 12 -6 0 -15
-6 -20 -12z"/>
<path d="M2781 1667 c-13 -21 -12 -21 5 -5 10 10 16 20 13 22 -3 3 -11 -5 -18
-17z"/>
<path d="M2751 1617 c-13 -21 -12 -21 5 -5 10 10 16 20 13 22 -3 3 -11 -5 -18
-17z"/>
<path d="M3440 2110 c-6 -11 -8 -20 -6 -20 3 0 10 9 16 20 6 11 8 20 6 20 -3
0 -10 -9 -16 -20z"/>
<path d="M3330 1959 c0 -6 6 -7 13 -2 6 4 4 -5 -5 -20 -27 -41 -21 -55 7 -17
30 41 31 50 5 50 -11 0 -20 -5 -20 -11z"/>
<path d="M3350 1894 c-32 -17 -39 -24 -24 -24 12 0 27 7 34 15 7 8 19 15 26
15 11 0 10 -9 -6 -41 -12 -23 -19 -43 -16 -46 3 -3 15 15 28 41 29 60 17 72
-42 40z"/>
<path d="M3162 2485 c0 -16 2 -22 5 -12 2 9 2 23 0 30 -3 6 -5 -1 -5 -18z"/>
<path d="M3271 2444 c0 -11 3 -14 6 -6 3 7 2 16 -1 19 -3 4 -6 -2 -5 -13z"/>
<path d="M3036 1709 c-22 -21 -35 -39 -30 -39 5 0 28 18 49 40 21 22 35 40 30
39 -6 0 -28 -18 -49 -40z"/>
<path d="M2922 1563 c-59 -41 -64 -57 -5 -20 32 20 74 58 62 56 -2 0 -28 -16
-57 -36z"/>
<path d="M1950 1375 c13 -14 26 -25 28 -25 3 0 -5 11 -18 25 -13 14 -26 25
-28 25 -3 0 5 -11 18 -25z"/>
<path d="M1984 1313 c4 -8 2 -13 -5 -13 -6 0 5 -15 26 -34 20 -19 44 -32 51
-29 8 3 14 7 14 10 0 3 -7 3 -15 0 -15 -6 -32 9 -17 15 4 1 -8 17 -27 33 -19
17 -32 24 -27 18z m31 -33 c10 -11 16 -20 13 -20 -3 0 -13 9 -23 20 -10 11
-16 20 -13 20 3 0 13 -9 23 -20z"/>
<path d="M2330 1036 c0 -2 8 -10 18 -17 15 -13 16 -12 3 4 -13 16 -21 21 -21
13z"/>
<path d="M3467 1362 c-25 -26 -27 -42 -4 -42 5 0 7 6 4 13 -2 6 5 22 16 35 30
32 16 27 -16 -6z"/>
<path d="M3188 1122 c6 -2 9 -8 6 -14 -5 -8 29 5 44 17 1 1 -13 2 -30 2 -18 0
-27 -2 -20 -5z"/>
<path d="M2520 916 c0 -2 7 -7 16 -10 8 -3 12 -2 9 4 -6 10 -25 14 -25 6z"/>
<path d="M2695 831 c-19 -8 -19 -8 3 -15 13 -4 26 -5 29 -2 4 3 0 6 -8 6 -11
0 -11 2 1 10 18 11 3 12 -25 1z"/>
<path d="M3893 821 c-10 -10 -54 -45 -98 -77 -125 -93 -143 -114 -30 -36 60
42 165 124 165 128 0 10 -21 2 -37 -15z"/>
<path d="M3170 525 c-46 -18 -28 -18 35 -1 30 9 40 14 25 14 -14 0 -41 -6 -60
-13z"/>
<path d="M2246 5067 c-16 -16 -42 -28 -68 -32 -23 -4 -54 -13 -68 -20 -33 -18
-17 -18 44 0 55 17 66 13 66 -19 0 -12 5 -27 10 -32 8 -8 6 -15 -5 -24 -8 -7
-15 -22 -15 -34 0 -29 -14 -47 -47 -62 l-28 -13 35 2 c29 2 37 -2 48 -26 14
-29 8 -53 -7 -28 -6 9 -11 10 -15 3 -4 -7 -19 -4 -41 9 -48 28 -44 17 6 -20
47 -34 74 -30 85 14 3 14 17 28 35 34 16 5 29 16 29 24 0 8 7 20 15 27 8 7 12
16 9 21 -3 5 4 9 15 9 26 0 24 30 -4 60 l-20 22 39 -7 c28 -6 37 -5 32 4 -9
15 -59 14 -74 -1 -7 -7 -12 -9 -12 -5 0 3 -10 3 -23 -2 -41 -16 -55 1 -43 54
13 55 36 65 96 41 22 -9 42 -11 45 -6 8 13 -9 20 -64 27 -44 5 -52 3 -75 -20z
m84 -117 c13 -8 13 -10 -1 -10 -25 0 -60 -32 -62 -57 0 -12 -4 -20 -8 -18 -3
3 -5 15 -4 27 1 13 3 31 4 40 1 15 16 24 46 27 6 0 17 -4 25 -9z m25 -30 c3
-5 -3 -10 -14 -10 -10 0 -29 -12 -40 -27 l-20 -28 -1 27 c0 37 57 67 75 38z
m-112 -32 c5 -35 -7 -59 -22 -42 -10 10 -3 74 9 74 4 0 10 -15 13 -32z m87 -2
c0 -3 -4 -8 -10 -11 -5 -3 -10 -1 -10 4 0 6 5 11 10 11 6 0 10 -2 10 -4z"/>
<path d="M2120 4989 c-19 -12 -38 -26 -42 -32 -3 -5 -18 -11 -32 -13 -15 -1
-24 1 -21 6 3 4 -4 6 -14 3 -21 -5 -35 -29 -22 -37 4 -3 20 2 35 10 38 19 43
18 21 -6 -10 -11 -13 -20 -8 -20 6 0 23 16 38 36 15 20 46 44 69 54 22 10 34
19 26 19 -8 1 -31 -9 -50 -20z"/>
<path d="M2172 4938 c-7 -7 -12 -19 -12 -28 0 -20 -29 -61 -30 -42 0 9 -7 11
-22 6 -22 -6 -22 -6 -5 19 25 38 21 56 -6 26 -12 -15 -35 -31 -52 -37 -16 -5
-39 -14 -50 -18 -18 -7 -19 -6 -6 9 12 15 12 17 -2 11 -22 -8 -40 -69 -34
-111 5 -30 4 -33 -9 -22 -12 10 -13 9 -8 -4 4 -12 15 -15 37 -13 29 4 30 3 12
-10 -41 -30 -87 -4 -65 36 7 13 9 37 5 60 -4 23 -2 41 4 45 6 3 11 11 11 17 0
20 -28 -12 -34 -40 -4 -15 -21 -39 -38 -53 -26 -22 -28 -27 -14 -32 10 -4 15
-3 11 3 -3 5 8 16 25 25 43 22 39 1 -10 -59 -22 -26 -40 -53 -40 -60 1 -10 22
13 38 41 6 10 16 9 47 -1 64 -22 90 -24 87 -5 -1 9 9 21 23 27 21 10 28 8 44
-9 l20 -21 -6 22 c-3 12 -12 24 -20 27 -10 4 -11 9 -2 19 19 23 4 26 -24 4
-14 -11 -32 -20 -40 -20 -25 0 -46 27 -40 52 14 55 60 76 134 59 40 -9 46 -8
61 12 14 19 30 68 24 74 -1 2 -8 -3 -14 -9z"/>
<path d="M2055 4835 c-22 -8 -41 -15 -41 -15 -1 0 -4 -8 -6 -18 -3 -12 1 -18
12 -19 13 -1 16 4 13 18 -4 15 1 20 26 25 17 4 34 11 37 15 6 11 8 11 -41 -6z"/>
<path d="M2268 4783 c7 -3 16 -2 19 1 4 3 -2 6 -13 5 -11 0 -14 -3 -6 -6z"/>
<path d="M2090 4755 c0 -2 10 -10 23 -16 20 -11 21 -11 8 4 -13 16 -31 23 -31
12z"/>
<path d="M2254 4722 c1 -35 2 -39 10 -23 6 13 5 29 -1 44 -9 19 -10 16 -9 -21z"/>
<path d="M2050 4716 c0 -2 7 -9 15 -16 13 -11 14 -10 9 4 -5 14 -24 23 -24 12z"/>
<path d="M2057 4591 c-4 -18 -7 -43 -7 -55 0 -27 28 -68 41 -60 6 3 5 12 -3
21 -7 9 -15 41 -18 72 -5 53 -6 54 -13 22z"/>
<path d="M1760 3038 c-79 -107 -139 -216 -144 -262 -1 -12 -6 -27 -9 -34 -14
-21 -313 -220 -396 -263 -61 -31 -108 -66 -184 -138 -58 -55 -137 -117 -182
-144 -44 -27 -89 -56 -100 -65 -35 -28 -136 -185 -135 -209 0 -4 20 22 43 58
48 75 108 152 113 146 2 -2 -11 -37 -29 -78 -44 -97 -78 -192 -113 -312 -15
-53 -29 -95 -32 -93 -2 3 -12 35 -23 73 -13 47 -17 56 -14 28 7 -63 29 -138
41 -142 7 -2 16 23 24 64 17 90 94 312 136 393 43 82 82 126 128 145 l37 16
-26 -51 c-71 -140 -150 -407 -170 -575 -4 -27 -8 -59 -10 -70 -1 -11 -6 -56
-11 -100 -4 -44 -9 -83 -10 -87 -1 -5 -2 -20 -3 -35 -2 -50 -19 -10 -45 107
-15 63 -30 129 -35 145 l-9 30 -1 -31 c-1 -16 8 -64 18 -105 11 -41 22 -90 25
-110 3 -20 10 -47 15 -60 12 -33 49 -65 60 -53 5 5 12 47 16 94 3 47 8 96 10
110 2 14 7 50 10 80 6 48 21 140 40 245 22 119 99 345 153 448 56 108 191 236
295 279 35 15 15 -13 -39 -52 -30 -23 -60 -52 -66 -65 -6 -14 -14 -22 -18 -20
-4 3 -16 -5 -26 -17 -13 -14 -14 -19 -4 -13 8 4 6 -2 -6 -14 -11 -12 -29 -24
-39 -25 -23 -3 -79 -147 -131 -334 -38 -140 -39 -143 -60 -287 -19 -129 -19
-133 0 -179 28 -68 38 -39 51 159 8 120 18 204 30 245 2 8 7 31 10 50 12 69
58 245 70 270 7 14 37 45 67 69 29 25 61 52 72 60 12 11 6 -10 -22 -64 -41
-83 -66 -155 -53 -155 4 0 27 44 51 98 77 171 157 281 265 365 101 78 155 110
155 93 0 -17 -57 -86 -102 -123 -71 -59 -77 -66 -71 -76 3 -6 1 -7 -4 -4 -6 4
-19 -3 -29 -16 -10 -12 -12 -16 -4 -9 8 6 18 12 23 12 8 0 -21 -42 -84 -120
-54 -68 -80 -115 -33 -60 89 102 124 133 214 193 52 34 95 69 95 77 1 20 26
102 36 115 16 21 67 165 56 158 -6 -3 -3 4 6 18 9 13 17 31 17 40 0 9 25 52
56 95 54 75 71 104 62 104 -2 0 -15 -15 -28 -32z m-1053 -1780 c-2 -13 -4 -5
-4 17 -1 22 1 32 4 23 2 -10 2 -28 0 -40z"/>
<path d="M1589 2486 c-3 -3 -2 -34 1 -70 4 -46 2 -66 -6 -66 -8 0 -8 -17 2
-62 15 -72 17 -109 3 -59 -15 51 -19 33 -6 -29 9 -46 12 -51 17 -30 4 14 7
-10 6 -52 -1 -46 3 -78 9 -78 6 -1 11 7 12 17 2 15 1 15 -6 -2 -12 -25 -12 0
-1 35 7 22 8 22 10 5 2 -11 3 -41 4 -67 1 -26 8 -54 17 -65 22 -25 53 -92 46
-100 -11 -10 102 -203 119 -203 6 0 1 10 -46 80 -33 50 -80 132 -68 120 19
-18 214 -319 205 -314 -7 3 -4 -1 5 -9 10 -8 14 -18 10 -22 -4 -5 -2 -5 4 -2
6 3 24 -12 40 -33 16 -22 32 -40 36 -40 4 0 25 -22 47 -49 21 -28 41 -48 44
-45 3 3 -1 13 -8 22 -8 10 -51 69 -96 132 -46 63 -119 165 -162 225 -44 61
-86 125 -94 143 -7 17 -18 32 -25 32 -6 0 -8 3 -5 7 4 3 -2 20 -12 37 -11 17
-22 47 -24 66 -3 19 -17 109 -31 200 -14 91 -28 190 -32 220 -7 58 -8 63 -15
56z m8 -178 c-3 -7 -5 -2 -5 12 0 14 2 19 5 13 2 -7 2 -19 0 -25z m50 -300
c-3 -8 -6 -5 -6 6 -1 11 2 17 5 13 3 -3 4 -12 1 -19z"/>
<path d="M1040 2289 c0 -5 5 -7 10 -4 6 3 10 8 10 11 0 2 -4 4 -10 4 -5 0 -10
-5 -10 -11z"/>
<path d="M1560 2188 c4 -24 15 -59 24 -78 18 -37 18 -34 -6 68 -15 62 -28 70
-18 10z"/>
<path d="M594 1898 c-21 -29 -46 -80 -41 -84 2 -2 16 18 30 46 25 48 30 64 11
38z"/>
<path d="M1448 1608 c15 -15 16 -31 0 -22 -14 9 -7 -4 49 -83 23 -34 41 -67
38 -75 -6 -15 92 -141 104 -134 4 3 8 -5 8 -16 2 -19 -1 -18 -30 8 -17 16 -2
-5 33 -46 35 -41 66 -77 67 -79 2 -2 5 -2 7 0 2 2 -13 24 -35 48 -21 25 -36
47 -34 50 3 2 6 2 8 0 1 -2 25 -31 52 -64 27 -33 42 -54 32 -46 -9 7 -17 9
-17 3 0 -14 26 -33 34 -24 4 4 6 0 4 -8 -1 -8 2 -14 9 -15 7 0 18 -7 25 -15
11 -12 11 -12 -4 -1 -15 11 -19 11 -24 -3 -3 -9 -11 -13 -16 -10 -6 4 -6 9 2
14 8 5 7 9 -5 13 -9 4 -13 3 -10 -3 3 -6 1 -10 -6 -10 -6 0 13 -23 42 -52 l54
-51 -50 34 c-64 45 -75 51 -75 45 0 -8 203 -157 208 -152 2 3 -15 32 -39 66
-26 37 -45 56 -49 49 -5 -7 -10 -8 -14 -1 -12 20 27 23 48 4 12 -11 30 -26 41
-35 11 -9 38 -31 61 -49 78 -64 190 -148 198 -148 4 0 4 5 0 12 -5 7 -3 8 5 4
7 -5 10 -11 7 -14 -3 -3 2 -15 11 -26 18 -20 18 -21 -2 -5 -45 36 -278 191
-272 182 4 -6 60 -49 124 -97 65 -47 127 -93 138 -102 27 -22 -48 21 -115 66
-30 20 -61 35 -69 32 -8 -2 -11 0 -8 5 3 5 -2 9 -12 10 -9 1 -54 24 -99 52
-45 28 -82 49 -82 47 0 -7 88 -67 145 -98 66 -36 50 -35 -65 6 -52 18 -104 37
-115 41 -18 6 -19 6 -3 -7 9 -8 36 -20 60 -27 24 -7 80 -26 124 -42 45 -17 86
-28 90 -27 11 4 145 -74 139 -80 -2 -2 -19 5 -38 17 -38 23 -52 27 -41 10 10
-17 106 -59 136 -59 35 0 58 9 58 24 0 14 -68 82 -75 75 -3 -3 9 -18 25 -34
17 -16 30 -33 30 -37 0 -5 -15 8 -32 28 -18 21 -32 41 -31 45 4 14 -74 69 -98
69 -16 0 -20 3 -11 8 9 6 -4 22 -45 55 -32 25 -76 62 -98 81 -22 20 -45 36
-51 36 -6 0 -19 10 -30 22 -10 12 -14 19 -9 15 6 -3 17 -1 25 5 12 8 12 9 -2
4 -15 -5 -32 8 -33 25 0 12 -87 101 -92 95 -7 -6 57 -80 72 -83 6 -2 10 -6 10
-10 0 -5 4 -14 8 -20 15 -23 -16 -14 -44 13 -15 15 -25 33 -22 41 3 7 1 13 -5
11 -5 -2 -11 2 -12 7 -1 6 -12 23 -24 40 -11 16 -19 36 -18 44 2 9 -2 12 -13
7 -10 -3 -14 -2 -10 4 4 6 -21 43 -55 83 -33 40 -91 116 -127 170 -36 53 -68
97 -71 97 -3 0 -1 -5 6 -12z m42 -72 c0 -6 -7 -1 -15 10 -8 10 -15 23 -15 28
0 6 7 1 15 -10 8 -10 15 -23 15 -28z m103 -166 c25 -32 40 -57 32 -53 -8 3
-15 8 -15 12 0 3 -16 24 -35 46 -31 35 -42 55 -32 55 2 0 25 -27 50 -60z m412
-530 c-3 -5 -1 -10 6 -10 7 0 10 -2 7 -5 -3 -3 -13 -2 -22 1 -14 5 -15 9 -4
15 17 11 20 11 13 -1z"/>
<path d="M789 1534 c1 -24 6 -44 10 -44 8 0 1 79 -8 84 -3 2 -4 -16 -2 -40z"/>
<path d="M2220 1559 c19 -6 46 -15 60 -20 23 -8 23 -9 -5 -4 -16 2 -24 2 -17
-1 6 -3 10 -10 7 -14 -3 -5 9 -5 27 1 42 12 41 12 26 -5 -7 -7 -20 -11 -28 -9
-13 4 -13 4 0 -6 8 -6 22 -11 31 -11 20 0 195 -85 203 -99 4 -6 12 -11 19 -11
21 0 -218 168 -248 175 -16 3 -48 8 -70 10 l-40 4 35 -10z"/>
<path d="M2740 1490 c0 -5 5 -10 11 -10 5 0 7 5 4 10 -3 6 -8 10 -11 10 -2 0
-4 -4 -4 -10z"/>
<path d="M806 1388 c7 -51 13 -112 13 -135 1 -24 5 -43 11 -43 5 0 8 6 5 13
-2 6 -6 41 -9 77 -8 109 -18 180 -25 180 -4 0 -1 -42 5 -92z"/>
<path d="M1172 1460 c0 -8 4 -26 8 -40 6 -20 8 -21 8 -5 0 11 -3 29 -8 40 -5
12 -8 14 -8 5z"/>
<path d="M3290 1419 c-30 -28 -50 -49 -44 -47 20 5 118 99 102 98 -2 0 -28
-23 -58 -51z"/>
<path d="M1191 1380 c0 -8 6 -28 14 -45 l14 -30 -6 30 c-7 38 -22 68 -22 45z"/>
<path d="M791 1364 c0 -11 3 -14 6 -6 3 7 2 16 -1 19 -3 4 -6 -2 -5 -13z"/>
<path d="M791 1324 c0 -11 3 -14 6 -6 3 7 2 16 -1 19 -3 4 -6 -2 -5 -13z"/>
<path d="M795 1290 c3 -5 8 -10 11 -10 2 0 4 5 4 10 0 6 -5 10 -11 10 -5 0 -7
-4 -4 -10z"/>
<path d="M802 1250 c0 -14 2 -19 5 -12 2 6 2 18 0 25 -3 6 -5 1 -5 -13z"/>
<path d="M1730 1235 c7 -9 15 -13 17 -11 7 7 -7 26 -19 26 -6 0 -6 -6 2 -15z"/>
<path d="M2203 1220 c14 -19 85 -80 95 -80 3 0 -3 9 -12 19 -25 28 -1 32 52 9
53 -22 56 -22 48 -2 -5 14 -4 15 9 4 9 -7 18 -10 22 -7 8 8 -72 44 -114 52
-18 3 -44 10 -58 15 -15 6 -33 10 -41 10 -13 0 -13 -3 -1 -20z m67 -14 c0 -3
-4 -8 -10 -11 -5 -3 -10 -1 -10 4 0 6 5 11 10 11 6 0 10 -2 10 -4z"/>
<path d="M1630 1226 c0 -2 8 -10 18 -17 15 -13 16 -12 3 4 -13 16 -21 21 -21
13z"/>
<path d="M1251 1195 c1 -19 18 -51 18 -35 0 8 -4 22 -9 30 -5 8 -9 11 -9 5z"/>
<path d="M1311 1155 c1 -19 18 -51 18 -35 0 8 -4 22 -9 30 -5 8 -9 11 -9 5z"/>
<path d="M1271 1135 c1 -19 18 -51 18 -35 0 8 -4 22 -9 30 -5 8 -9 11 -9 5z"/>
<path d="M1331 1099 c-1 -4 15 -46 34 -93 19 -48 35 -92 35 -99 0 -7 16 -38
35 -70 19 -32 32 -63 29 -69 -4 -6 -2 -8 3 -5 10 6 174 -203 186 -235 2 -7 7
-10 11 -7 4 4 -21 44 -57 90 -103 137 -165 245 -260 459 -9 19 -16 32 -16 29z"/>
<path d="M2387 1079 c7 -7 15 -10 18 -7 3 3 -2 9 -12 12 -14 6 -15 5 -6 -5z"/>
<path d="M2425 1062 c14 -15 106 -64 110 -60 2 2 -24 19 -58 37 -34 18 -57 29
-52 23z"/>
<path d="M3240 1029 c-12 -8 -9 -9 9 -4 13 4 21 3 18 -1 -3 -5 6 -10 20 -11
14 0 21 3 17 7 -17 15 -49 20 -64 9z"/>
<path d="M2890 866 c0 -2 7 -7 16 -10 8 -3 12 -2 9 4 -6 10 -25 14 -25 6z"/>
<path d="M3490 805 c-7 -8 -8 -15 -2 -15 5 0 15 7 22 15 7 8 8 15 2 15 -5 0
-15 -7 -22 -15z"/>
<path d="M1700 705 c12 -19 80 -81 80 -73 0 2 -21 24 -46 48 -26 25 -41 36
-34 25z"/>
<path d="M3118 683 c7 -3 16 -2 19 1 4 3 -2 6 -13 5 -11 0 -14 -3 -6 -6z"/>
<path d="M2082 649 c3 -8 20 -17 39 -20 23 -4 27 -7 11 -8 -14 0 -22 -6 -20
-13 6 -16 124 -39 161 -32 29 6 164 -22 172 -36 5 -9 -13 -5 -89 16 -56 16
-94 18 -61 4 14 -6 15 -9 5 -10 -20 -2 200 -78 275 -95 33 -7 71 -18 85 -24
22 -9 20 -10 -15 -5 -22 3 -49 8 -60 10 l-20 4 20 -10 c11 -5 40 -14 64 -20
64 -17 45 -21 -22 -5 -31 7 -55 9 -52 4 3 -4 22 -11 41 -15 19 -3 32 -9 29
-13 -10 -9 -75 -7 -75 2 0 5 -5 5 -10 2 -6 -4 -37 12 -70 34 -53 35 -155 81
-180 81 -5 0 -12 4 -15 10 -4 6 1 7 12 4 14 -5 15 -4 4 4 -13 9 -31 7 -54 -6
-9 -4 16 -21 60 -41 13 -6 30 -8 38 -5 8 4 15 2 15 -3 0 -15 133 -82 225 -114
57 -19 98 -28 127 -25 24 2 34 1 23 -2 -11 -3 21 -11 70 -17 92 -13 154 -22
193 -30 45 -8 188 -14 152 -6 -19 5 -27 9 -18 10 9 0 19 5 23 11 8 14 -48 40
-73 33 -13 -3 -22 -1 -22 6 0 7 -4 9 -10 6 -5 -3 -10 -2 -10 3 0 5 -35 17 -77
26 -158 37 -267 77 -413 156 -70 38 -176 74 -196 66 -8 -3 -12 -2 -9 4 3 6 -4
10 -17 10 -13 0 -63 12 -113 26 -127 36 -149 40 -143 23z m408 -141 c63 -17
119 -35 124 -39 5 -4 -7 -4 -25 1 -71 17 -264 73 -269 78 -7 7 32 -3 170 -40z
m50 12 c20 -6 21 -8 5 -8 -11 0 -29 3 -40 8 -25 11 1 11 35 0z m166 -152 c3
-4 12 -4 19 -2 7 3 16 1 19 -5 5 -7 -12 -9 -51 -7 l-58 5 40 -14 c22 -7 31
-13 20 -13 -11 0 -42 8 -70 19 -34 13 -40 17 -18 13 17 -3 34 0 38 6 7 11 49
9 61 -2z m107 5 c-7 -2 -21 -2 -30 0 -10 3 -4 5 12 5 17 0 24 -2 18 -5z m7
-29 c0 -3 -13 -3 -29 -2 -16 1 -28 5 -26 9 5 6 55 0 55 -7z m160 0 c0 -2 -12
-4 -26 -4 -14 0 -23 4 -20 9 6 8 46 4 46 -5z m56 -36 c4 -6 3 -8 -4 -4 -5 3
-12 2 -14 -3 -1 -5 -9 -3 -16 5 -11 12 -9 14 7 14 11 0 23 -5 27 -12z m94 -8
c-6 -4 -23 -5 -38 -2 -23 5 -24 6 -7 12 24 9 62 0 45 -10z"/>
<path d="M1870 565 c13 -14 26 -25 28 -25 3 0 -5 11 -18 25 -13 14 -26 25 -28
25 -3 0 5 -11 18 -25z"/>
<path d="M2155 570 c19 -8 73 -14 64 -6 -2 2 -22 6 -44 9 -28 5 -34 4 -20 -3z"/>
<path d="M1870 535 c13 -14 26 -25 28 -25 3 0 -5 11 -18 25 -13 14 -26 25 -28
25 -3 0 5 -11 18 -25z"/>
<path d="M2460 465 c46 -18 64 -17 25 0 -16 8 -37 14 -45 14 -8 0 1 -7 20 -14z"/>
<path d="M2240 446 c0 -6 74 -55 112 -75 16 -8 26 -16 24 -18 -2 -3 -12 0 -23
6 -42 24 -83 41 -83 36 0 -12 151 -76 162 -69 7 4 8 3 4 -4 -5 -8 1 -12 16
-13 19 -1 18 -3 -7 -9 -27 -7 -27 -8 -5 -8 14 0 35 3 48 7 21 5 16 10 -40 39
-35 19 -96 52 -135 74 -40 21 -73 37 -73 34z"/>
<path d="M1966 312 c-2 -4 -7 -26 -11 -49 -3 -24 -14 -67 -25 -98 -11 -31 -15
-53 -10 -50 11 7 48 120 53 168 5 36 3 45 -7 29z"/>
<path d="M2121 308 c-1 -10 -7 -15 -14 -13 -15 6 -41 -32 -27 -40 6 -4 14 4
19 17 9 21 10 21 11 3 1 -18 2 -17 11 4 5 13 8 29 5 35 -2 6 -5 3 -5 -6z"/>
<path d="M1985 262 c-3 -26 -9 -58 -12 -72 -3 -14 -3 -23 0 -20 10 9 34 130
27 135 -4 3 -11 -17 -15 -43z"/>
<path d="M2146 294 c-4 -9 -4 -19 -1 -22 2 -3 7 3 11 12 4 9 4 19 1 22 -2 3
-7 -3 -11 -12z"/>
<path d="M2014 265 c-3 -8 -4 -20 -2 -27 3 -7 7 -1 10 15 6 29 1 36 -8 12z"/>
<path d="M2428 273 c6 -2 18 -2 25 0 6 3 1 5 -13 5 -14 0 -19 -2 -12 -5z"/>
<path d="M3218 273 c6 -2 18 -2 25 0 6 3 1 5 -13 5 -14 0 -19 -2 -12 -5z"/>
<path d="M2003 203 c-3 -10 -8 -22 -11 -27 -3 -5 0 -6 5 -3 11 7 25 47 17 47
-3 0 -7 -8 -11 -17z"/>
<path d="M2312 195 c0 -16 2 -22 5 -12 2 9 2 23 0 30 -3 6 -5 -1 -5 -18z"/>
<path d="M3026 212 c-2 -4 7 -8 20 -8 13 -1 24 1 24 5 0 9 -38 12 -44 3z"/>
<path d="M2141 194 c0 -11 3 -14 6 -6 3 7 2 16 -1 19 -3 4 -6 -2 -5 -13z"/>
<path d="M2242 190 c0 -14 2 -19 5 -12 2 6 2 18 0 25 -3 6 -5 1 -5 -13z"/>
<path d="M2382 190 c0 -14 2 -19 5 -12 2 6 2 18 0 25 -3 6 -5 1 -5 -13z"/>
<path d="M2410 166 c0 -20 2 -36 4 -36 8 0 12 61 4 66 -4 3 -8 -11 -8 -30z"/>
<path d="M2551 154 c0 -11 3 -14 6 -6 3 7 2 16 -1 19 -3 4 -6 -2 -5 -13z"/>
</g>
</svg>
